<svg fill="none" viewBox="0 0 553 72" aria-hidden="true"><path fill="currentColor" d="M32.4 40q.4 1.6.4 4 0 2.3-.4 4 .4 1.6.4 4 0 2.3-.4 4h-4q.4 1.6.4 4 0 2.3-.4 4h-4q.4 1.6.4 4 0 2.3-.4 4H.4Q0 70.3 0 68q0-2.4.4-4-.4-1.7-.4-4 0-2.4.4-4-.4-1.7-.4-4 0-2.4.4-4-.4-1.7-.4-4 0-2.4.4-4-.4-1.7-.4-4 0-2.4.4-4-.4-1.7-.4-4 0-2.4.4-4-.4-1.7-.4-4 0-2.4.4-4h24q.4 1.6.4 4 0 2.3-.4 4h4q.4 1.6.4 4 0 2.3-.4 4h4q.4 1.6.4 4 0 2.3-.4 4m-8 16q-.4-1.7-.4-4 0-2.4.4-4-.4-1.7-.4-4 0-2.4.4-4-.4-1.7-.4-4 0-2.4.4-4h-4q-.4-1.7-.4-4 0-2.4.4-4h-12q.4 1.6.4 4 0 2.3-.4 4 .4 1.6.4 4 0 2.3-.4 4 .4 1.6.4 4 0 2.3-.4 4 .4 1.6.4 4 0 2.3-.4 4 .4 1.6.4 4 0 2.3-.4 4h12q-.4-1.7-.4-4 0-2.4.4-4zm28.04-8q.4 1.6.4 4 0 2.3-.4 4 .4 1.6.4 4 0 2.3-.4 4h16q.4 1.6.4 4 0 2.3-.4 4h-24q-.401-1.7-.4-4-.001-2.4.4-4-.401-1.7-.4-4-.001-2.4.4-4-.401-1.7-.4-4-.001-2.4.4-4-.401-1.7-.4-4-.001-2.4.4-4-.401-1.7-.4-4-.001-2.4.4-4-.401-1.7-.4-4-.001-2.4.4-4-.401-1.7-.4-4-.001-2.4.4-4h24q.4 1.6.4 4 0 2.3-.4 4h-16q.4 1.6.4 4 0 2.3-.4 4 .4 1.6.4 4 0 2.3-.4 4h16q.4 1.6.4 4 0 2.3-.4 4zm60.438 12q0 2.3-.4 4 .4 1.6.4 4 0 2.3-.4 4h-8q-.4-1.7-.4-4 0-2.4.4-4-.4-1.7-.4-4 0-2.4.4-4h-16q.4 1.6.4 4 0 2.3-.4 4 .4 1.6.4 4 0 2.3-.4 4h-8q-.4-1.7-.4-4 0-2.4.4-4-.4-1.7-.4-4 0-2.4.4-4h3q-.4-1.7-.4-4 0-2.4.4-4-.4-1.7-.4-4 0-2.4.4-4h2q-.4-1.7-.4-4 0-2.4.4-4h3q-.4-1.7-.4-4 0-2.4.4-4h2q-.4-1.7-.4-4 0-2.4.4-4h12q.4 1.6.4 4 0 2.3-.4 4h2q.4 1.6.4 4 0 2.3-.4 4h3q.4 1.6.4 4 0 2.3-.4 4h2q.4 1.6.4 4 0 2.3-.4 4 .4 1.6.4 4 0 2.3-.4 4h3q.4 1.6.4 4m-11.4-12q-.4-1.7-.4-4 0-2.4.4-4h-2q-.4-1.7-.4-4 0-2.4.4-4h-6q.4 1.6.4 4 0 2.3-.4 4h-2q.4 1.6.4 4 0 2.3-.4 4zm51.039-8q.4 1.6.4 4 0 2.3-.4 4 .4 1.6.4 4 0 2.3-.4 4h-4q.4 1.6.4 4 0 2.3-.4 4h-4q.4 1.6.4 4 0 2.3-.4 4h-24q-.4-1.7-.4-4 0-2.4.4-4-.4-1.7-.4-4 0-2.4.4-4-.4-1.7-.4-4 0-2.4.4-4-.4-1.7-.4-4 0-2.4.4-4-.4-1.7-.4-4 0-2.4.4-4-.4-1.7-.4-4 0-2.4.4-4-.4-1.7-.4-4 0-2.4.4-4h24q.4 1.6.4 4 0 2.3-.4 4h4q.4 1.6.4 4 0 2.3-.4 4h4q.4 1.6.4 4 0 2.3-.4 4m-8 16q-.4-1.7-.4-4 0-2.4.4-4-.4-1.7-.4-4 0-2.4.4-4-.4-1.7-.4-4 0-2.4.4-4h-4q-.4-1.7-.4-4 0-2.4.4-4h-12q.4 1.6.4 4 0 2.3-.4 4 .4 1.6.4 4 0 2.3-.4 4 .4 1.6.4 4 0 2.3-.4 4 .4 1.6.4 4 0 2.3-.4 4 .4 1.6.4 4 0 2.3-.4 4h12q-.4-1.7-.4-4 0-2.4.4-4zm48.039-32q.4 1.6.4 4 0 2.3-.4 4 .4 1.6.4 4 0 2.3-.4 4 .4 1.6.4 4 0 2.3-.4 4 .4 1.6.4 4 0 2.3-.4 4 .4 1.6.4 4 0 2.3-.4 4 .4 1.6.4 4 0 2.3-.4 4h-8q-.4-1.7-.4-4 0-2.4.4-4-.4-1.7-.4-4 0-2.4.4-4-.4-1.7-.4-4 0-2.4.4-4-.4-1.7-.4-4 0-2.4.4-4-.4-1.7-.4-4 0-2.4.4-4h-3q.4 1.6.4 4 0 2.3-.4 4 .4 1.6.4 4 0 2.3-.4 4h-2q.4 1.6.4 4 0 2.3-.4 4 .4 1.6.4 4 0 2.3-.4 4h-6q-.4-1.7-.4-4 0-2.4.4-4-.4-1.7-.4-4 0-2.4.4-4h-2q-.4-1.7-.4-4 0-2.4.4-4-.4-1.7-.4-4 0-2.4.4-4h-3q.4 1.6.4 4 0 2.3-.4 4 .4 1.6.4 4 0 2.3-.4 4 .4 1.6.4 4 0 2.3-.4 4 .4 1.6.4 4 0 2.3-.4 4 .4 1.6.4 4 0 2.3-.4 4h-8q-.4-1.7-.4-4 0-2.4.4-4-.4-1.7-.4-4 0-2.4.4-4-.4-1.7-.4-4 0-2.4.4-4-.4-1.7-.4-4 0-2.4.4-4-.4-1.7-.4-4 0-2.4.4-4-.4-1.7-.4-4 0-2.4.4-4-.4-1.7-.4-4 0-2.4.4-4h10q.4 1.6.4 4 0 2.3-.4 4h3q.4 1.6.4 4 0 2.3-.4 4h1.5q.4 1.6.4 4 0 2.3-.4 4h3q-.4-1.7-.4-4 0-2.4.4-4h1.5q-.4-1.7-.4-4 0-2.4.4-4h3q-.4-1.7-.4-4 0-2.4.4-4h10q.4 1.6.4 4 0 2.3-.4 4m40.439 36q0 2.3-.4 4 .4 1.6.4 4 0 2.3-.4 4h-8q-.4-1.7-.4-4 0-2.4.4-4-.4-1.7-.4-4 0-2.4.4-4h-16q.4 1.6.4 4 0 2.3-.4 4 .4 1.6.4 4 0 2.3-.4 4h-8q-.4-1.7-.4-4 0-2.4.4-4-.4-1.7-.4-4 0-2.4.4-4h3q-.4-1.7-.4-4 0-2.4.4-4-.4-1.7-.4-4 0-2.4.4-4h2q-.4-1.7-.4-4 0-2.4.4-4h3q-.4-1.7-.4-4 0-2.4.4-4h2q-.4-1.7-.4-4 0-2.4.4-4h12q.4 1.6.4 4 0 2.3-.4 4h2q.4 1.6.4 4 0 2.3-.4 4h3q.4 1.6.4 4 0 2.3-.4 4h2q.4 1.6.4 4 0 2.3-.4 4 .4 1.6.4 4 0 2.3-.4 4h3q.4 1.6.4 4m-11.4-12q-.4-1.7-.4-4 0-2.4.4-4h-2q-.4-1.7-.4-4 0-2.4.4-4h-6q.4 1.6.4 4 0 2.3-.4 4h-2q.4 1.6.4 4 0 2.3-.4 4zm51.039-24q.4 1.6.4 4 0 2.3-.4 4 .4 1.6.4 4 0 2.3-.4 4 .4 1.6.4 4 0 2.3-.4 4 .4 1.6.4 4 0 2.3-.4 4 .4 1.6.4 4 0 2.3-.4 4 .4 1.6.4 4 0 2.3-.4 4h-8q-.4-1.7-.4-4 0-2.4.4-4h-5q-.4-1.7-.4-4 0-2.4.4-4h-3q-.4-1.7-.4-4 0-2.4.4-4h-4q-.4-1.7-.4-4 0-2.4.4-4h-4q.4 1.6.4 4 0 2.3-.4 4 .4 1.6.4 4 0 2.3-.4 4 .4 1.6.4 4 0 2.3-.4 4 .4 1.6.4 4 0 2.3-.4 4h-8q-.4-1.7-.4-4 0-2.4.4-4-.4-1.7-.4-4 0-2.4.4-4-.4-1.7-.4-4 0-2.4.4-4-.4-1.7-.4-4 0-2.4.4-4-.4-1.7-.4-4 0-2.4.4-4-.4-1.7-.4-4 0-2.4.4-4-.4-1.7-.4-4 0-2.4.4-4h10q.4 1.6.4 4 0 2.3-.4 4h3q.4 1.6.4 4 0 2.3-.4 4h3q.4 1.6.4 4 0 2.3-.4 4h4q.4 1.6.4 4 0 2.3-.4 4h4q-.4-1.7-.4-4 0-2.4.4-4-.4-1.7-.4-4 0-2.4.4-4-.4-1.7-.4-4 0-2.4.4-4-.4-1.7-.4-4 0-2.4.4-4h8q.4 1.6.4 4 0 2.3-.4 4m29.039-16q.4 1.6.4 4 0 2.3-.4 4 .4 1.6.4 4 0 2.3-.4 4h-4q.4 1.6.4 4 0 2.3-.4 4h-6q-.4-1.7-.4-4 0-2.4.4-4h4q-.4-1.7-.4-4 0-2.4.4-4h-4q-.4-1.7-.4-4 0-2.4.4-4-.4-1.7-.4-4 0-2.4.4-4h10q.4 1.6.4 4 0 2.3-.4 4m51.039 40q.4 1.6.4 4 0 2.3-.4 4 .4 1.6.4 4 0 2.3-.4 4h-4q.4 1.6.4 4 0 2.3-.4 4h-24q-.4-1.7-.4-4 0-2.4.4-4h-4q-.4-1.7-.4-4 0-2.4.4-4h8q.4 1.6.4 4 0 2.3-.4 4h16q-.4-1.7-.4-4 0-2.4.4-4-.4-1.7-.4-4 0-2.4.4-4h-20q-.4-1.7-.4-4 0-2.4.4-4h-4q-.4-1.7-.4-4 0-2.4.4-4-.4-1.7-.4-4 0-2.4.4-4h4q-.4-1.7-.4-4 0-2.4.4-4h24q.4 1.6.4 4 0 2.3-.4 4h4q.4 1.6.4 4 0 2.3-.4 4h-8q-.4-1.7-.4-4 0-2.4.4-4h-16q.4 1.6.4 4 0 2.3-.4 4 .4 1.6.4 4 0 2.3-.4 4h20q.4 1.6.4 4 0 2.3-.4 4zm80.479-12q0 2.3-.4 4h-4q.4 1.6.4 4 0 2.3-.4 4h4q.4 1.6.4 4 0 2.3-.4 4 .4 1.6.4 4 0 2.3-.4 4h-4q.4 1.6.4 4 0 2.3-.4 4h-28q-.4-1.7-.4-4 0-2.4.4-4-.4-1.7-.4-4 0-2.4.4-4-.4-1.7-.4-4 0-2.4.4-4-.4-1.7-.4-4 0-2.4.4-4-.4-1.7-.4-4 0-2.4.4-4-.4-1.7-.4-4 0-2.4.4-4-.4-1.7-.4-4 0-2.4.4-4h28q.4 1.6.4 4 0 2.3-.4 4h4q.4 1.6.4 4 0 2.3-.4 4 .4 1.6.4 4m-8.4 4q-.4-1.7-.4-4 0-2.4.4-4-.4-1.7-.4-4 0-2.4.4-4h-16q.4 1.6.4 4 0 2.3-.4 4 .4 1.6.4 4 0 2.3-.4 4zm0 16q-.4-1.7-.4-4 0-2.4.4-4h-16q.4 1.6.4 4 0 2.3-.4 4 .4 1.6.4 4 0 2.3-.4 4h16q-.4-1.7-.4-4 0-2.4.4-4m48.039 8q.4 1.6.4 4 0 2.3-.4 4h-8q-.4-1.7-.4-4 0-2.4.4-4h-3q-.4-1.7-.4-4 0-2.4.4-4h-3q-.4-1.7-.4-4 0-2.4.4-4h-10q.4 1.6.4 4 0 2.3-.4 4 .4 1.6.4 4 0 2.3-.4 4 .4 1.6.4 4 0 2.3-.4 4h-8q-.4-1.7-.4-4 0-2.4.4-4-.4-1.7-.4-4 0-2.4.4-4-.4-1.7-.4-4 0-2.4.4-4-.4-1.7-.4-4 0-2.4.4-4-.4-1.7-.4-4 0-2.4.4-4-.4-1.7-.4-4 0-2.4.4-4-.4-1.7-.4-4 0-2.4.4-4h28q.4 1.6.4 4 0 2.3-.4 4h4q.4 1.6.4 4 0 2.3-.4 4h-2q.4 1.6.4 4 0 2.3-.4 4h-6q.4 1.6.4 4 0 2.3-.4 4h2q.4 1.6.4 4 0 2.3-.4 4h3q.4 1.6.4 4 0 2.3-.4 4zm-10-24q-.4-1.7-.4-4 0-2.4.4-4-.4-1.7-.4-4 0-2.4.4-4h-14q.4 1.6.4 4 0 2.3-.4 4 .4 1.6.4 4 0 2.3-.4 4zm30.039 8q.4 1.6.4 4 0 2.3-.4 4 .4 1.6.4 4 0 2.3-.4 4h16q.4 1.6.4 4 0 2.3-.4 4h-24q-.4-1.7-.4-4 0-2.4.4-4-.4-1.7-.4-4 0-2.4.4-4-.4-1.7-.4-4 0-2.4.4-4-.4-1.7-.4-4 0-2.4.4-4-.4-1.7-.4-4 0-2.4.4-4-.4-1.7-.4-4 0-2.4.4-4-.4-1.7-.4-4 0-2.4.4-4h24q.4 1.6.4 4 0 2.3-.4 4h-16q.4 1.6.4 4 0 2.3-.4 4 .4 1.6.4 4 0 2.3-.4 4h16q.4 1.6.4 4 0 2.3-.4 4zm60.039-24q.4 1.6.4 4 0 2.3-.4 4 .4 1.6.4 4 0 2.3-.4 4 .4 1.6.4 4 0 2.3-.4 4h-3q.4 1.6.4 4 0 2.3-.4 4 .4 1.6.4 4 0 2.3-.4 4h-2q.4 1.6.4 4 0 2.3-.4 4h-6q-.4-1.7-.4-4 0-2.4.4-4h-2q-.4-1.7-.4-4 0-2.4.4-4h-6q.4 1.6.4 4 0 2.3-.4 4h-2q.4 1.6.4 4 0 2.3-.4 4h-6q-.4-1.7-.4-4 0-2.4.4-4h-2q-.4-1.7-.4-4 0-2.4.4-4-.4-1.7-.4-4 0-2.4.4-4h-3q-.4-1.7-.4-4 0-2.4.4-4-.4-1.7-.4-4 0-2.4.4-4-.4-1.7-.4-4 0-2.4.4-4-.4-1.7-.4-4 0-2.4.4-4h8q.4 1.6.4 4 0 2.3-.4 4 .4 1.6.4 4 0 2.3-.4 4 .4 1.6.4 4 0 2.3-.4 4 .4 1.6.4 4 0 2.3-.4 4 .4 1.6.4 4 0 2.3-.4 4h3q-.4-1.7-.4-4 0-2.4.4-4h2q-.4-1.7-.4-4 0-2.4.4-4-.4-1.7-.4-4 0-2.4.4-4-.4-1.7-.4-4 0-2.4.4-4-.4-1.7-.4-4 0-2.4.4-4h6q.4 1.6.4 4 0 2.3-.4 4 .4 1.6.4 4 0 2.3-.4 4 .4 1.6.4 4 0 2.3-.4 4 .4 1.6.4 4 0 2.3-.4 4h2q.4 1.6.4 4 0 2.3-.4 4h3q-.4-1.7-.4-4 0-2.4.4-4-.4-1.7-.4-4 0-2.4.4-4-.4-1.7-.4-4 0-2.4.4-4-.4-1.7-.4-4 0-2.4.4-4-.4-1.7-.4-4 0-2.4.4-4h8q.4 1.6.4 4 0 2.3-.4 4"/></svg>