<svg xmlns="http://www.w3.org/2000/svg" fill="none" viewBox="0 0 553 72"><g fill="#2e160e" clip-path="url(#a)"><path d="M32.4 40q.4 1.6.4 4 0 2.3-.4 4 .4 1.6.4 4 0 2.3-.4 4h-4q.4 1.6.4 4 0 2.3-.4 4h-4q.4 1.6.4 4 0 2.3-.4 4H.4Q0 70.3 0 68q0-2.4.4-4-.4-1.7-.4-4 0-2.4.4-4-.4-1.7-.4-4 0-2.4.4-4-.4-1.7-.4-4 0-2.4.4-4-.4-1.7-.4-4 0-2.4.4-4-.4-1.7-.4-4 0-2.4.4-4-.4-1.7-.4-4 0-2.4.4-4h24q.4 1.6.4 4 0 2.3-.4 4h4q.4 1.6.4 4 0 2.3-.4 4h4q.4 1.6.4 4 0 2.3-.4 4m-8 16q-.4-1.7-.4-4 0-2.4.4-4-.4-1.7-.4-4 0-2.4.4-4-.4-1.7-.4-4 0-2.4.4-4h-4q-.4-1.7-.4-4 0-2.4.4-4h-12q.4 1.6.4 4 0 2.3-.4 4 .4 1.6.4 4 0 2.3-.4 4 .4 1.6.4 4 0 2.3-.4 4 .4 1.6.4 4 0 2.3-.4 4 .4 1.6.4 4 0 2.3-.4 4h12q-.4-1.7-.4-4 0-2.4.4-4zM52.44 48q.4 1.6.4 4 0 2.3-.4 4 .4 1.6.4 4 0 2.3-.4 4h16q.4 1.6.4 4 0 2.3-.4 4h-24q-.401-1.7-.4-4-.001-2.4.4-4-.401-1.7-.4-4-.001-2.4.4-4-.401-1.7-.4-4-.001-2.4.4-4-.401-1.7-.4-4-.001-2.4.4-4-.401-1.7-.4-4-.001-2.4.4-4-.401-1.7-.4-4-.001-2.4.4-4-.401-1.7-.4-4-.001-2.4.4-4h24q.4 1.6.4 4 0 2.3-.4 4h-16q.4 1.6.4 4 0 2.3-.4 4 .4 1.6.4 4 0 2.3-.4 4h16q.4 1.6.4 4 0 2.3-.4 4zM112.878 60q0 2.3-.4 4 .4 1.6.4 4 0 2.3-.4 4h-8q-.4-1.7-.4-4 0-2.4.4-4-.4-1.7-.4-4 0-2.4.4-4h-16q.4 1.6.4 4 0 2.3-.4 4 .4 1.6.4 4 0 2.3-.4 4h-8q-.4-1.7-.4-4 0-2.4.4-4-.4-1.7-.4-4 0-2.4.4-4h3q-.4-1.7-.4-4 0-2.4.4-4-.4-1.7-.4-4 0-2.4.4-4h2q-.4-1.7-.4-4 0-2.4.4-4h3q-.4-1.7-.4-4 0-2.4.4-4h2q-.4-1.7-.4-4 0-2.4.4-4h12q.4 1.6.4 4 0 2.3-.4 4h2q.4 1.6.4 4 0 2.3-.4 4h3q.4 1.6.4 4 0 2.3-.4 4h2q.4 1.6.4 4 0 2.3-.4 4 .4 1.6.4 4 0 2.3-.4 4h3q.4 1.6.4 4m-11.4-12q-.4-1.7-.4-4 0-2.4.4-4h-2q-.4-1.7-.4-4 0-2.4.4-4h-6q.4 1.6.4 4 0 2.3-.4 4h-2q.4 1.6.4 4 0 2.3-.4 4zM152.517 40q.4 1.6.4 4 0 2.3-.4 4 .4 1.6.4 4 0 2.3-.4 4h-4q.4 1.6.4 4 0 2.3-.4 4h-4q.4 1.6.4 4 0 2.3-.4 4h-24q-.4-1.7-.4-4 0-2.4.4-4-.4-1.7-.4-4 0-2.4.4-4-.4-1.7-.4-4 0-2.4.4-4-.4-1.7-.4-4 0-2.4.4-4-.4-1.7-.4-4 0-2.4.4-4-.4-1.7-.4-4 0-2.4.4-4-.4-1.7-.4-4 0-2.4.4-4h24q.4 1.6.4 4 0 2.3-.4 4h4q.4 1.6.4 4 0 2.3-.4 4h4q.4 1.6.4 4 0 2.3-.4 4m-8 16q-.4-1.7-.4-4 0-2.4.4-4-.4-1.7-.4-4 0-2.4.4-4-.4-1.7-.4-4 0-2.4.4-4h-4q-.4-1.7-.4-4 0-2.4.4-4h-12q.4 1.6.4 4 0 2.3-.4 4 .4 1.6.4 4 0 2.3-.4 4 .4 1.6.4 4 0 2.3-.4 4 .4 1.6.4 4 0 2.3-.4 4 .4 1.6.4 4 0 2.3-.4 4h12q-.4-1.7-.4-4 0-2.4.4-4zM192.556 24q.4 1.6.4 4 0 2.3-.4 4 .4 1.6.4 4 0 2.3-.4 4 .4 1.6.4 4 0 2.3-.4 4 .4 1.6.4 4 0 2.3-.4 4 .4 1.6.4 4 0 2.3-.4 4 .4 1.6.4 4 0 2.3-.4 4h-8q-.4-1.7-.4-4 0-2.4.4-4-.4-1.7-.4-4 0-2.4.4-4-.4-1.7-.4-4 0-2.4.4-4-.4-1.7-.4-4 0-2.4.4-4-.4-1.7-.4-4 0-2.4.4-4h-3q.4 1.6.4 4 0 2.3-.4 4 .4 1.6.4 4 0 2.3-.4 4h-2q.4 1.6.4 4 0 2.3-.4 4 .4 1.6.4 4 0 2.3-.4 4h-6q-.4-1.7-.4-4 0-2.4.4-4-.4-1.7-.4-4 0-2.4.4-4h-2q-.4-1.7-.4-4 0-2.4.4-4-.4-1.7-.4-4 0-2.4.4-4h-3q.4 1.6.4 4 0 2.3-.4 4 .4 1.6.4 4 0 2.3-.4 4 .4 1.6.4 4 0 2.3-.4 4 .4 1.6.4 4 0 2.3-.4 4 .4 1.6.4 4 0 2.3-.4 4h-8q-.4-1.7-.4-4 0-2.4.4-4-.4-1.7-.4-4 0-2.4.4-4-.4-1.7-.4-4 0-2.4.4-4-.4-1.7-.4-4 0-2.4.4-4-.4-1.7-.4-4 0-2.4.4-4-.4-1.7-.4-4 0-2.4.4-4-.4-1.7-.4-4 0-2.4.4-4h10q.4 1.6.4 4 0 2.3-.4 4h3q.4 1.6.4 4 0 2.3-.4 4h1.5q.4 1.6.4 4 0 2.3-.4 4h3q-.4-1.7-.4-4 0-2.4.4-4h1.5q-.4-1.7-.4-4 0-2.4.4-4h3q-.4-1.7-.4-4 0-2.4.4-4h10q.4 1.6.4 4 0 2.3-.4 4M232.995 60q0 2.3-.4 4 .4 1.6.4 4 0 2.3-.4 4h-8q-.4-1.7-.4-4 0-2.4.4-4-.4-1.7-.4-4 0-2.4.4-4h-16q.4 1.6.4 4 0 2.3-.4 4 .4 1.6.4 4 0 2.3-.4 4h-8q-.4-1.7-.4-4 0-2.4.4-4-.4-1.7-.4-4 0-2.4.4-4h3q-.4-1.7-.4-4 0-2.4.4-4-.4-1.7-.4-4 0-2.4.4-4h2q-.4-1.7-.4-4 0-2.4.4-4h3q-.4-1.7-.4-4 0-2.4.4-4h2q-.4-1.7-.4-4 0-2.4.4-4h12q.4 1.6.4 4 0 2.3-.4 4h2q.4 1.6.4 4 0 2.3-.4 4h3q.4 1.6.4 4 0 2.3-.4 4h2q.4 1.6.4 4 0 2.3-.4 4 .4 1.6.4 4 0 2.3-.4 4h3q.4 1.6.4 4m-11.4-12q-.4-1.7-.4-4 0-2.4.4-4h-2q-.4-1.7-.4-4 0-2.4.4-4h-6q.4 1.6.4 4 0 2.3-.4 4h-2q.4 1.6.4 4 0 2.3-.4 4zM272.634 24q.4 1.6.4 4 0 2.3-.4 4 .4 1.6.4 4 0 2.3-.4 4 .4 1.6.4 4 0 2.3-.4 4 .4 1.6.4 4 0 2.3-.4 4 .4 1.6.4 4 0 2.3-.4 4 .4 1.6.4 4 0 2.3-.4 4h-8q-.4-1.7-.4-4 0-2.4.4-4h-5q-.4-1.7-.4-4 0-2.4.4-4h-3q-.4-1.7-.4-4 0-2.4.4-4h-4q-.4-1.7-.4-4 0-2.4.4-4h-4q.4 1.6.4 4 0 2.3-.4 4 .4 1.6.4 4 0 2.3-.4 4 .4 1.6.4 4 0 2.3-.4 4 .4 1.6.4 4 0 2.3-.4 4h-8q-.4-1.7-.4-4 0-2.4.4-4-.4-1.7-.4-4 0-2.4.4-4-.4-1.7-.4-4 0-2.4.4-4-.4-1.7-.4-4 0-2.4.4-4-.4-1.7-.4-4 0-2.4.4-4-.4-1.7-.4-4 0-2.4.4-4-.4-1.7-.4-4 0-2.4.4-4h10q.4 1.6.4 4 0 2.3-.4 4h3q.4 1.6.4 4 0 2.3-.4 4h3q.4 1.6.4 4 0 2.3-.4 4h4q.4 1.6.4 4 0 2.3-.4 4h4q-.4-1.7-.4-4 0-2.4.4-4-.4-1.7-.4-4 0-2.4.4-4-.4-1.7-.4-4 0-2.4.4-4-.4-1.7-.4-4 0-2.4.4-4h8q.4 1.6.4 4 0 2.3-.4 4M301.673 8q.4 1.6.4 4 0 2.3-.4 4 .4 1.6.4 4 0 2.3-.4 4h-4q.4 1.6.4 4 0 2.3-.4 4h-6q-.4-1.7-.4-4 0-2.4.4-4h4q-.4-1.7-.4-4 0-2.4.4-4h-4q-.4-1.7-.4-4 0-2.4.4-4-.4-1.7-.4-4 0-2.4.4-4h10q.4 1.6.4 4 0 2.3-.4 4M352.712 48q.4 1.6.4 4 0 2.3-.4 4 .4 1.6.4 4 0 2.3-.4 4h-4q.4 1.6.4 4 0 2.3-.4 4h-24q-.4-1.7-.4-4 0-2.4.4-4h-4q-.4-1.7-.4-4 0-2.4.4-4h8q.4 1.6.4 4 0 2.3-.4 4h16q-.4-1.7-.4-4 0-2.4.4-4-.4-1.7-.4-4 0-2.4.4-4h-20q-.4-1.7-.4-4 0-2.4.4-4h-4q-.4-1.7-.4-4 0-2.4.4-4-.4-1.7-.4-4 0-2.4.4-4h4q-.4-1.7-.4-4 0-2.4.4-4h24q.4 1.6.4 4 0 2.3-.4 4h4q.4 1.6.4 4 0 2.3-.4 4h-8q-.4-1.7-.4-4 0-2.4.4-4h-16q.4 1.6.4 4 0 2.3-.4 4 .4 1.6.4 4 0 2.3-.4 4h20q.4 1.6.4 4 0 2.3-.4 4zM433.191 36q0 2.3-.4 4h-4q.4 1.6.4 4 0 2.3-.4 4h4q.4 1.6.4 4 0 2.3-.4 4 .4 1.6.4 4 0 2.3-.4 4h-4q.4 1.6.4 4 0 2.3-.4 4h-28q-.4-1.7-.4-4 0-2.4.4-4-.4-1.7-.4-4 0-2.4.4-4-.4-1.7-.4-4 0-2.4.4-4-.4-1.7-.4-4 0-2.4.4-4-.4-1.7-.4-4 0-2.4.4-4-.4-1.7-.4-4 0-2.4.4-4-.4-1.7-.4-4 0-2.4.4-4h28q.4 1.6.4 4 0 2.3-.4 4h4q.4 1.6.4 4 0 2.3-.4 4 .4 1.6.4 4m-8.4 4q-.4-1.7-.4-4 0-2.4.4-4-.4-1.7-.4-4 0-2.4.4-4h-16q.4 1.6.4 4 0 2.3-.4 4 .4 1.6.4 4 0 2.3-.4 4zm0 16q-.4-1.7-.4-4 0-2.4.4-4h-16q.4 1.6.4 4 0 2.3-.4 4 .4 1.6.4 4 0 2.3-.4 4h16q-.4-1.7-.4-4 0-2.4.4-4M472.83 64q.4 1.6.4 4 0 2.3-.4 4h-8q-.4-1.7-.4-4 0-2.4.4-4h-3q-.4-1.7-.4-4 0-2.4.4-4h-3q-.4-1.7-.4-4 0-2.4.4-4h-10q.4 1.6.4 4 0 2.3-.4 4 .4 1.6.4 4 0 2.3-.4 4 .4 1.6.4 4 0 2.3-.4 4h-8q-.4-1.7-.4-4 0-2.4.4-4-.4-1.7-.4-4 0-2.4.4-4-.4-1.7-.4-4 0-2.4.4-4-.4-1.7-.4-4 0-2.4.4-4-.4-1.7-.4-4 0-2.4.4-4-.4-1.7-.4-4 0-2.4.4-4-.4-1.7-.4-4 0-2.4.4-4h28q.4 1.6.4 4 0 2.3-.4 4h4q.4 1.6.4 4 0 2.3-.4 4h-2q.4 1.6.4 4 0 2.3-.4 4h-6q.4 1.6.4 4 0 2.3-.4 4h2q.4 1.6.4 4 0 2.3-.4 4h3q.4 1.6.4 4 0 2.3-.4 4zm-10-24q-.4-1.7-.4-4 0-2.4.4-4-.4-1.7-.4-4 0-2.4.4-4h-14q.4 1.6.4 4 0 2.3-.4 4 .4 1.6.4 4 0 2.3-.4 4zM492.869 48q.4 1.6.4 4 0 2.3-.4 4 .4 1.6.4 4 0 2.3-.4 4h16q.4 1.6.4 4 0 2.3-.4 4h-24q-.4-1.7-.4-4 0-2.4.4-4-.4-1.7-.4-4 0-2.4.4-4-.4-1.7-.4-4 0-2.4.4-4-.4-1.7-.4-4 0-2.4.4-4-.4-1.7-.4-4 0-2.4.4-4-.4-1.7-.4-4 0-2.4.4-4-.4-1.7-.4-4 0-2.4.4-4h24q.4 1.6.4 4 0 2.3-.4 4h-16q.4 1.6.4 4 0 2.3-.4 4 .4 1.6.4 4 0 2.3-.4 4h16q.4 1.6.4 4 0 2.3-.4 4zM552.908 24q.4 1.6.4 4 0 2.3-.4 4 .4 1.6.4 4 0 2.3-.4 4 .4 1.6.4 4 0 2.3-.4 4h-3q.4 1.6.4 4 0 2.3-.4 4 .4 1.6.4 4 0 2.3-.4 4h-2q.4 1.6.4 4 0 2.3-.4 4h-6q-.4-1.7-.4-4 0-2.4.4-4h-2q-.4-1.7-.4-4 0-2.4.4-4h-6q.4 1.6.4 4 0 2.3-.4 4h-2q.4 1.6.4 4 0 2.3-.4 4h-6q-.4-1.7-.4-4 0-2.4.4-4h-2q-.4-1.7-.4-4 0-2.4.4-4-.4-1.7-.4-4 0-2.4.4-4h-3q-.4-1.7-.4-4 0-2.4.4-4-.4-1.7-.4-4 0-2.4.4-4-.4-1.7-.4-4 0-2.4.4-4-.4-1.7-.4-4 0-2.4.4-4h8q.4 1.6.4 4 0 2.3-.4 4 .4 1.6.4 4 0 2.3-.4 4 .4 1.6.4 4 0 2.3-.4 4 .4 1.6.4 4 0 2.3-.4 4 .4 1.6.4 4 0 2.3-.4 4h3q-.4-1.7-.4-4 0-2.4.4-4h2q-.4-1.7-.4-4 0-2.4.4-4-.4-1.7-.4-4 0-2.4.4-4-.4-1.7-.4-4 0-2.4.4-4-.4-1.7-.4-4 0-2.4.4-4h6q.4 1.6.4 4 0 2.3-.4 4 .4 1.6.4 4 0 2.3-.4 4 .4 1.6.4 4 0 2.3-.4 4 .4 1.6.4 4 0 2.3-.4 4h2q.4 1.6.4 4 0 2.3-.4 4h3q-.4-1.7-.4-4 0-2.4.4-4-.4-1.7-.4-4 0-2.4.4-4-.4-1.7-.4-4 0-2.4.4-4-.4-1.7-.4-4 0-2.4.4-4-.4-1.7-.4-4 0-2.4.4-4h8q.4 1.6.4 4 0 2.3-.4 4"/></g><defs><clipPath id="a"><path fill="#fff" d="M0 0h553v72H0z"/></clipPath></defs></svg>