<svg xmlns="http://www.w3.org/2000/svg" viewBox="0 0 553 56" fill="none">
  <g fill="#000" clip-path="url(#a)">
    <path d="M32.4 40c.267 1.067.4 2.4.4 4 0 1.533-.133 2.867-.4 4 .267 1.067.4 2.4.4 4 0 1.533-.133 2.867-.4 4h-4c.267 1.067.4 2.4.4 4 0 1.533-.133 2.867-.4 4h-4c.267 1.067.4 2.4.4 4 0 1.533-.133 2.867-.4 4H.4c-.267-1.133-.4-2.467-.4-4 0-1.6.133-2.933.4-4-.267-1.133-.4-2.467-.4-4 0-1.6.133-2.933.4-4-.267-1.133-.4-2.467-.4-4 0-1.6.133-2.933.4-4-.267-1.133-.4-2.467-.4-4 0-1.6.133-2.933.4-4-.267-1.133-.4-2.467-.4-4 0-1.6.133-2.933.4-4-.267-1.133-.4-2.467-.4-4 0-1.6.133-2.933.4-4-.267-1.133-.4-2.467-.4-4 0-1.6.133-2.933.4-4h24c.267 1.067.4 2.4.4 4 0 1.533-.133 2.867-.4 4h4c.267 1.067.4 2.4.4 4 0 1.533-.133 2.867-.4 4h4c.267 1.067.4 2.4.4 4 0 1.533-.133 2.867-.4 4Zm-8 16c-.267-1.133-.4-2.467-.4-4 0-1.6.133-2.933.4-4-.267-1.133-.4-2.467-.4-4 0-1.6.133-2.933.4-4-.267-1.133-.4-2.467-.4-4 0-1.6.133-2.933.4-4h-4c-.267-1.133-.4-2.467-.4-4 0-1.6.133-2.933.4-4h-12c.267 1.067.4 2.4.4 4 0 1.533-.133 2.867-.4 4 .267 1.067.4 2.4.4 4 0 1.533-.133 2.867-.4 4 .267 1.067.4 2.4.4 4 0 1.533-.133 2.867-.4 4 .267 1.067.4 2.4.4 4 0 1.533-.133 2.867-.4 4 .267 1.067.4 2.4.4 4 0 1.533-.133 2.867-.4 4h12c-.267-1.133-.4-2.467-.4-4 0-1.6.133-2.933.4-4h4ZM52.44 48c.266 1.067.4 2.4.4 4 0 1.533-.134 2.867-.4 4 .266 1.067.4 2.4.4 4 0 1.533-.134 2.867-.4 4h16c.266 1.067.4 2.4.4 4 0 1.533-.134 2.867-.4 4h-24c-.268-1.133-.4-2.467-.4-4 0-1.6.132-2.933.4-4-.268-1.133-.4-2.467-.4-4 0-1.6.132-2.933.4-4-.268-1.133-.4-2.467-.4-4 0-1.6.132-2.933.4-4-.268-1.133-.4-2.467-.4-4 0-1.6.132-2.933.4-4-.268-1.133-.4-2.467-.4-4 0-1.6.132-2.933.4-4-.268-1.133-.4-2.467-.4-4 0-1.6.132-2.933.4-4-.268-1.133-.4-2.467-.4-4 0-1.6.132-2.933.4-4h24c.266 1.067.4 2.4.4 4 0 1.533-.134 2.867-.4 4h-16c.266 1.067.4 2.4.4 4 0 1.533-.134 2.867-.4 4 .266 1.067.4 2.4.4 4 0 1.533-.134 2.867-.4 4h16c.266 1.067.4 2.4.4 4 0 1.533-.134 2.867-.4 4h-16ZM112.878 60c0 1.533-.133 2.867-.4 4 .267 1.067.4 2.4.4 4 0 1.533-.133 2.867-.4 4h-8c-.267-1.133-.4-2.467-.4-4 0-1.6.133-2.933.4-4-.267-1.133-.4-2.467-.4-4 0-1.6.133-2.933.4-4h-16c.267 1.067.4 2.4.4 4 0 1.533-.133 2.867-.4 4 .267 1.067.4 2.4.4 4 0 1.533-.133 2.867-.4 4h-8c-.266-1.133-.4-2.467-.4-4 0-1.6.133-2.933.4-4-.266-1.133-.4-2.467-.4-4 0-1.6.133-2.933.4-4h3c-.266-1.133-.4-2.467-.4-4 0-1.6.133-2.933.4-4-.266-1.133-.4-2.467-.4-4 0-1.6.133-2.933.4-4h2c-.266-1.133-.4-2.467-.4-4 0-1.6.133-2.933.4-4h3c-.266-1.133-.4-2.467-.4-4 0-1.6.133-2.933.4-4h2c-.266-1.133-.4-2.467-.4-4 0-1.6.133-2.933.4-4h12c.267 1.067.4 2.4.4 4 0 1.533-.133 2.867-.4 4h2c.267 1.067.4 2.4.4 4 0 1.533-.133 2.867-.4 4h3c.267 1.067.4 2.4.4 4 0 1.533-.133 2.867-.4 4h2c.267 1.067.4 2.4.4 4 0 1.533-.133 2.867-.4 4 .267 1.067.4 2.4.4 4 0 1.533-.133 2.867-.4 4h3c.267 1.067.4 2.4.4 4Zm-11.4-12c-.267-1.133-.4-2.467-.4-4 0-1.6.133-2.933.4-4h-2c-.266-1.133-.4-2.467-.4-4 0-1.6.133-2.933.4-4h-6c.267 1.067.4 2.4.4 4 0 1.533-.133 2.867-.4 4h-2c.267 1.067.4 2.4.4 4 0 1.533-.133 2.867-.4 4h10ZM152.517 40c.267 1.067.4 2.4.4 4 0 1.533-.133 2.867-.4 4 .267 1.067.4 2.4.4 4 0 1.533-.133 2.867-.4 4h-4c.267 1.067.4 2.4.4 4 0 1.533-.133 2.867-.4 4h-4c.267 1.067.4 2.4.4 4 0 1.533-.133 2.867-.4 4h-24c-.266-1.133-.4-2.467-.4-4 0-1.6.134-2.933.4-4-.266-1.133-.4-2.467-.4-4 0-1.6.134-2.933.4-4-.266-1.133-.4-2.467-.4-4 0-1.6.134-2.933.4-4-.266-1.133-.4-2.467-.4-4 0-1.6.134-2.933.4-4-.266-1.133-.4-2.467-.4-4 0-1.6.134-2.933.4-4-.266-1.133-.4-2.467-.4-4 0-1.6.134-2.933.4-4-.266-1.133-.4-2.467-.4-4 0-1.6.134-2.933.4-4h24c.267 1.067.4 2.4.4 4 0 1.533-.133 2.867-.4 4h4c.267 1.067.4 2.4.4 4 0 1.533-.133 2.867-.4 4h4c.267 1.067.4 2.4.4 4 0 1.533-.133 2.867-.4 4Zm-8 16c-.266-1.133-.4-2.467-.4-4 0-1.6.134-2.933.4-4-.266-1.133-.4-2.467-.4-4 0-1.6.134-2.933.4-4-.266-1.133-.4-2.467-.4-4 0-1.6.134-2.933.4-4h-4c-.266-1.133-.4-2.467-.4-4 0-1.6.134-2.933.4-4h-12c.267 1.067.4 2.4.4 4 0 1.533-.133 2.867-.4 4 .267 1.067.4 2.4.4 4 0 1.533-.133 2.867-.4 4 .267 1.067.4 2.4.4 4 0 1.533-.133 2.867-.4 4 .267 1.067.4 2.4.4 4 0 1.533-.133 2.867-.4 4 .267 1.067.4 2.4.4 4 0 1.533-.133 2.867-.4 4h12c-.266-1.133-.4-2.467-.4-4 0-1.6.134-2.933.4-4h4ZM192.556 24c.267 1.067.4 2.4.4 4 0 1.533-.133 2.867-.4 4 .267 1.067.4 2.4.4 4 0 1.533-.133 2.867-.4 4 .267 1.067.4 2.4.4 4 0 1.533-.133 2.867-.4 4 .267 1.067.4 2.4.4 4 0 1.533-.133 2.867-.4 4 .267 1.067.4 2.4.4 4 0 1.533-.133 2.867-.4 4 .267 1.067.4 2.4.4 4 0 1.533-.133 2.867-.4 4h-8c-.266-1.133-.4-2.467-.4-4 0-1.6.134-2.933.4-4-.266-1.133-.4-2.467-.4-4 0-1.6.134-2.933.4-4-.266-1.133-.4-2.467-.4-4 0-1.6.134-2.933.4-4-.266-1.133-.4-2.467-.4-4 0-1.6.134-2.933.4-4-.266-1.133-.4-2.467-.4-4 0-1.6.134-2.933.4-4h-3c.267 1.067.4 2.4.4 4 0 1.533-.133 2.867-.4 4 .267 1.067.4 2.4.4 4 0 1.533-.133 2.867-.4 4h-2c.267 1.067.4 2.4.4 4 0 1.533-.133 2.867-.4 4 .267 1.067.4 2.4.4 4 0 1.533-.133 2.867-.4 4h-6c-.266-1.133-.4-2.467-.4-4 0-1.6.134-2.933.4-4-.266-1.133-.4-2.467-.4-4 0-1.6.134-2.933.4-4h-2c-.266-1.133-.4-2.467-.4-4 0-1.6.134-2.933.4-4-.266-1.133-.4-2.467-.4-4 0-1.6.134-2.933.4-4h-3c.267 1.067.4 2.4.4 4 0 1.533-.133 2.867-.4 4 .267 1.067.4 2.4.4 4 0 1.533-.133 2.867-.4 4 .267 1.067.4 2.4.4 4 0 1.533-.133 2.867-.4 4 .267 1.067.4 2.4.4 4 0 1.533-.133 2.867-.4 4 .267 1.067.4 2.4.4 4 0 1.533-.133 2.867-.4 4h-8c-.266-1.133-.4-2.467-.4-4 0-1.6.134-2.933.4-4-.266-1.133-.4-2.467-.4-4 0-1.6.134-2.933.4-4-.266-1.133-.4-2.467-.4-4 0-1.6.134-2.933.4-4-.266-1.133-.4-2.467-.4-4 0-1.6.134-2.933.4-4-.266-1.133-.4-2.467-.4-4 0-1.6.134-2.933.4-4-.266-1.133-.4-2.467-.4-4 0-1.6.134-2.933.4-4-.266-1.133-.4-2.467-.4-4 0-1.6.134-2.933.4-4h10c.267 1.067.4 2.4.4 4 0 1.533-.133 2.867-.4 4h3c.267 1.067.4 2.4.4 4 0 1.533-.133 2.867-.4 4h1.5c.267 1.067.4 2.4.4 4 0 1.533-.133 2.867-.4 4h3c-.266-1.133-.4-2.467-.4-4 0-1.6.134-2.933.4-4h1.5c-.266-1.133-.4-2.467-.4-4 0-1.6.134-2.933.4-4h3c-.266-1.133-.4-2.467-.4-4 0-1.6.134-2.933.4-4h10c.267 1.067.4 2.4.4 4 0 1.533-.133 2.867-.4 4ZM232.995 60c0 1.533-.133 2.867-.4 4 .267 1.067.4 2.4.4 4 0 1.533-.133 2.867-.4 4h-8c-.266-1.133-.4-2.467-.4-4 0-1.6.134-2.933.4-4-.266-1.133-.4-2.467-.4-4 0-1.6.134-2.933.4-4h-16c.267 1.067.4 2.4.4 4 0 1.533-.133 2.867-.4 4 .267 1.067.4 2.4.4 4 0 1.533-.133 2.867-.4 4h-8c-.266-1.133-.4-2.467-.4-4 0-1.6.134-2.933.4-4-.266-1.133-.4-2.467-.4-4 0-1.6.134-2.933.4-4h3c-.266-1.133-.4-2.467-.4-4 0-1.6.134-2.933.4-4-.266-1.133-.4-2.467-.4-4 0-1.6.134-2.933.4-4h2c-.266-1.133-.4-2.467-.4-4 0-1.6.134-2.933.4-4h3c-.266-1.133-.4-2.467-.4-4 0-1.6.134-2.933.4-4h2c-.266-1.133-.4-2.467-.4-4 0-1.6.134-2.933.4-4h12c.267 1.067.4 2.4.4 4 0 1.533-.133 2.867-.4 4h2c.267 1.067.4 2.4.4 4 0 1.533-.133 2.867-.4 4h3c.267 1.067.4 2.4.4 4 0 1.533-.133 2.867-.4 4h2c.267 1.067.4 2.4.4 4 0 1.533-.133 2.867-.4 4 .267 1.067.4 2.4.4 4 0 1.533-.133 2.867-.4 4h3c.267 1.067.4 2.4.4 4Zm-11.4-12c-.266-1.133-.4-2.467-.4-4 0-1.6.134-2.933.4-4h-2c-.266-1.133-.4-2.467-.4-4 0-1.6.134-2.933.4-4h-6c.267 1.067.4 2.4.4 4 0 1.533-.133 2.867-.4 4h-2c.267 1.067.4 2.4.4 4 0 1.533-.133 2.867-.4 4h10ZM272.634 24c.267 1.067.4 2.4.4 4 0 1.533-.133 2.867-.4 4 .267 1.067.4 2.4.4 4 0 1.533-.133 2.867-.4 4 .267 1.067.4 2.4.4 4 0 1.533-.133 2.867-.4 4 .267 1.067.4 2.4.4 4 0 1.533-.133 2.867-.4 4 .267 1.067.4 2.4.4 4 0 1.533-.133 2.867-.4 4 .267 1.067.4 2.4.4 4 0 1.533-.133 2.867-.4 4h-8c-.266-1.133-.4-2.467-.4-4 0-1.6.134-2.933.4-4h-5c-.266-1.133-.4-2.467-.4-4 0-1.6.134-2.933.4-4h-3c-.266-1.133-.4-2.467-.4-4 0-1.6.134-2.933.4-4h-4c-.266-1.133-.4-2.467-.4-4 0-1.6.134-2.933.4-4h-4c.267 1.067.4 2.4.4 4 0 1.533-.133 2.867-.4 4 .267 1.067.4 2.4.4 4 0 1.533-.133 2.867-.4 4 .267 1.067.4 2.4.4 4 0 1.533-.133 2.867-.4 4 .267 1.067.4 2.4.4 4 0 1.533-.133 2.867-.4 4h-8c-.266-1.133-.4-2.467-.4-4 0-1.6.134-2.933.4-4-.266-1.133-.4-2.467-.4-4 0-1.6.134-2.933.4-4-.266-1.133-.4-2.467-.4-4 0-1.6.134-2.933.4-4-.266-1.133-.4-2.467-.4-4 0-1.6.134-2.933.4-4-.266-1.133-.4-2.467-.4-4 0-1.6.134-2.933.4-4-.266-1.133-.4-2.467-.4-4 0-1.6.134-2.933.4-4-.266-1.133-.4-2.467-.4-4 0-1.6.134-2.933.4-4h10c.267 1.067.4 2.4.4 4 0 1.533-.133 2.867-.4 4h3c.267 1.067.4 2.4.4 4 0 1.533-.133 2.867-.4 4h3c.267 1.067.4 2.4.4 4 0 1.533-.133 2.867-.4 4h4c.267 1.067.4 2.4.4 4 0 1.533-.133 2.867-.4 4h4c-.266-1.133-.4-2.467-.4-4 0-1.6.134-2.933.4-4-.266-1.133-.4-2.467-.4-4 0-1.6.134-2.933.4-4-.266-1.133-.4-2.467-.4-4 0-1.6.134-2.933.4-4-.266-1.133-.4-2.467-.4-4 0-1.6.134-2.933.4-4h8c.267 1.067.4 2.4.4 4 0 1.533-.133 2.867-.4 4ZM301.673 8c.267 1.067.4 2.4.4 4 0 1.533-.133 2.867-.4 4 .267 1.067.4 2.4.4 4 0 1.533-.133 2.867-.4 4h-4c.267 1.067.4 2.4.4 4 0 1.533-.133 2.867-.4 4h-6c-.266-1.133-.4-2.467-.4-4 0-1.6.134-2.933.4-4h4c-.266-1.133-.4-2.467-.4-4 0-1.6.134-2.933.4-4h-4c-.266-1.133-.4-2.467-.4-4 0-1.6.134-2.933.4-4-.266-1.133-.4-2.467-.4-4 0-1.6.134-2.933.4-4h10c.267 1.067.4 2.4.4 4 0 1.533-.133 2.867-.4 4ZM352.712 48c.267 1.067.4 2.4.4 4 0 1.533-.133 2.867-.4 4 .267 1.067.4 2.4.4 4 0 1.533-.133 2.867-.4 4h-4c.267 1.067.4 2.4.4 4 0 1.533-.133 2.867-.4 4h-24c-.266-1.133-.4-2.467-.4-4 0-1.6.134-2.933.4-4h-4c-.266-1.133-.4-2.467-.4-4 0-1.6.134-2.933.4-4h8c.267 1.067.4 2.4.4 4 0 1.533-.133 2.867-.4 4h16c-.266-1.133-.4-2.467-.4-4 0-1.6.134-2.933.4-4-.266-1.133-.4-2.467-.4-4 0-1.6.134-2.933.4-4h-20c-.266-1.133-.4-2.467-.4-4 0-1.6.134-2.933.4-4h-4c-.266-1.133-.4-2.467-.4-4 0-1.6.134-2.933.4-4-.266-1.133-.4-2.467-.4-4 0-1.6.134-2.933.4-4h4c-.266-1.133-.4-2.467-.4-4 0-1.6.134-2.933.4-4h24c.267 1.067.4 2.4.4 4 0 1.533-.133 2.867-.4 4h4c.267 1.067.4 2.4.4 4 0 1.533-.133 2.867-.4 4h-8c-.266-1.133-.4-2.467-.4-4 0-1.6.134-2.933.4-4h-16c.267 1.067.4 2.4.4 4 0 1.533-.133 2.867-.4 4 .267 1.067.4 2.4.4 4 0 1.533-.133 2.867-.4 4h20c.267 1.067.4 2.4.4 4 0 1.533-.133 2.867-.4 4h4ZM433.191 36c0 1.533-.134 2.867-.4 4h-4c.266 1.067.4 2.4.4 4 0 1.533-.134 2.867-.4 4h4c.266 1.067.4 2.4.4 4 0 1.533-.134 2.867-.4 4 .266 1.067.4 2.4.4 4 0 1.533-.134 2.867-.4 4h-4c.266 1.067.4 2.4.4 4 0 1.533-.134 2.867-.4 4h-28c-.267-1.133-.4-2.467-.4-4 0-1.6.133-2.933.4-4-.267-1.133-.4-2.467-.4-4 0-1.6.133-2.933.4-4-.267-1.133-.4-2.467-.4-4 0-1.6.133-2.933.4-4-.267-1.133-.4-2.467-.4-4 0-1.6.133-2.933.4-4-.267-1.133-.4-2.467-.4-4 0-1.6.133-2.933.4-4-.267-1.133-.4-2.467-.4-4 0-1.6.133-2.933.4-4-.267-1.133-.4-2.467-.4-4 0-1.6.133-2.933.4-4h28c.266 1.067.4 2.4.4 4 0 1.533-.134 2.867-.4 4h4c.266 1.067.4 2.4.4 4 0 1.533-.134 2.867-.4 4 .266 1.067.4 2.4.4 4Zm-8.4 4c-.267-1.133-.4-2.467-.4-4 0-1.6.133-2.933.4-4-.267-1.133-.4-2.467-.4-4 0-1.6.133-2.933.4-4h-16c.266 1.067.4 2.4.4 4 0 1.533-.134 2.867-.4 4 .266 1.067.4 2.4.4 4 0 1.533-.134 2.867-.4 4h16Zm0 16c-.267-1.133-.4-2.467-.4-4 0-1.6.133-2.933.4-4h-16c.266 1.067.4 2.4.4 4 0 1.533-.134 2.867-.4 4 .266 1.067.4 2.4.4 4 0 1.533-.134 2.867-.4 4h16c-.267-1.133-.4-2.467-.4-4 0-1.6.133-2.933.4-4ZM472.83 64c.266 1.067.4 2.4.4 4 0 1.533-.134 2.867-.4 4h-8c-.267-1.133-.4-2.467-.4-4 0-1.6.133-2.933.4-4h-3c-.267-1.133-.4-2.467-.4-4 0-1.6.133-2.933.4-4h-3c-.267-1.133-.4-2.467-.4-4 0-1.6.133-2.933.4-4h-10c.266 1.067.4 2.4.4 4 0 1.533-.134 2.867-.4 4 .266 1.067.4 2.4.4 4 0 1.533-.134 2.867-.4 4 .266 1.067.4 2.4.4 4 0 1.533-.134 2.867-.4 4h-8c-.267-1.133-.4-2.467-.4-4 0-1.6.133-2.933.4-4-.267-1.133-.4-2.467-.4-4 0-1.6.133-2.933.4-4-.267-1.133-.4-2.467-.4-4 0-1.6.133-2.933.4-4-.267-1.133-.4-2.467-.4-4 0-1.6.133-2.933.4-4-.267-1.133-.4-2.467-.4-4 0-1.6.133-2.933.4-4-.267-1.133-.4-2.467-.4-4 0-1.6.133-2.933.4-4-.267-1.133-.4-2.467-.4-4 0-1.6.133-2.933.4-4h28c.266 1.067.4 2.4.4 4 0 1.533-.134 2.867-.4 4h4c.266 1.067.4 2.4.4 4 0 1.533-.134 2.867-.4 4h-2c.266 1.067.4 2.4.4 4 0 1.533-.134 2.867-.4 4h-6c.266 1.067.4 2.4.4 4 0 1.533-.134 2.867-.4 4h2c.266 1.067.4 2.4.4 4 0 1.533-.134 2.867-.4 4h3c.266 1.067.4 2.4.4 4 0 1.533-.134 2.867-.4 4h3Zm-10-24c-.267-1.133-.4-2.467-.4-4 0-1.6.133-2.933.4-4-.267-1.133-.4-2.467-.4-4 0-1.6.133-2.933.4-4h-14c.266 1.067.4 2.4.4 4 0 1.533-.134 2.867-.4 4 .266 1.067.4 2.4.4 4 0 1.533-.134 2.867-.4 4h14ZM492.869 48c.266 1.067.4 2.4.4 4 0 1.533-.134 2.867-.4 4 .266 1.067.4 2.4.4 4 0 1.533-.134 2.867-.4 4h16c.266 1.067.4 2.4.4 4 0 1.533-.134 2.867-.4 4h-24c-.267-1.133-.4-2.467-.4-4 0-1.6.133-2.933.4-4-.267-1.133-.4-2.467-.4-4 0-1.6.133-2.933.4-4-.267-1.133-.4-2.467-.4-4 0-1.6.133-2.933.4-4-.267-1.133-.4-2.467-.4-4 0-1.6.133-2.933.4-4-.267-1.133-.4-2.467-.4-4 0-1.6.133-2.933.4-4-.267-1.133-.4-2.467-.4-4 0-1.6.133-2.933.4-4-.267-1.133-.4-2.467-.4-4 0-1.6.133-2.933.4-4h24c.266 1.067.4 2.4.4 4 0 1.533-.134 2.867-.4 4h-16c.266 1.067.4 2.4.4 4 0 1.533-.134 2.867-.4 4 .266 1.067.4 2.4.4 4 0 1.533-.134 2.867-.4 4h16c.266 1.067.4 2.4.4 4 0 1.533-.134 2.867-.4 4h-16ZM552.908 24c.267 1.067.4 2.4.4 4 0 1.533-.133 2.867-.4 4 .267 1.067.4 2.4.4 4 0 1.533-.133 2.867-.4 4 .267 1.067.4 2.4.4 4 0 1.533-.133 2.867-.4 4h-3c.267 1.067.4 2.4.4 4 0 1.533-.133 2.867-.4 4 .267 1.067.4 2.4.4 4 0 1.533-.133 2.867-.4 4h-2c.267 1.067.4 2.4.4 4 0 1.533-.133 2.867-.4 4h-6c-.267-1.133-.4-2.467-.4-4 0-1.6.133-2.933.4-4h-2c-.267-1.133-.4-2.467-.4-4 0-1.6.133-2.933.4-4h-6c.267 1.067.4 2.4.4 4 0 1.533-.133 2.867-.4 4h-2c.267 1.067.4 2.4.4 4 0 1.533-.133 2.867-.4 4h-6c-.267-1.133-.4-2.467-.4-4 0-1.6.133-2.933.4-4h-2c-.267-1.133-.4-2.467-.4-4 0-1.6.133-2.933.4-4-.267-1.133-.4-2.467-.4-4 0-1.6.133-2.933.4-4h-3c-.267-1.133-.4-2.467-.4-4 0-1.6.133-2.933.4-4-.267-1.133-.4-2.467-.4-4 0-1.6.133-2.933.4-4-.267-1.133-.4-2.467-.4-4 0-1.6.133-2.933.4-4-.267-1.133-.4-2.467-.4-4 0-1.6.133-2.933.4-4h8c.267 1.067.4 2.4.4 4 0 1.533-.133 2.867-.4 4 .267 1.067.4 2.4.4 4 0 1.533-.133 2.867-.4 4 .267 1.067.4 2.4.4 4 0 1.533-.133 2.867-.4 4 .267 1.067.4 2.4.4 4 0 1.533-.133 2.867-.4 4 .267 1.067.4 2.4.4 4 0 1.533-.133 2.867-.4 4h3c-.267-1.133-.4-2.467-.4-4 0-1.6.133-2.933.4-4h2c-.267-1.133-.4-2.467-.4-4 0-1.6.133-2.933.4-4-.267-1.133-.4-2.467-.4-4 0-1.6.133-2.933.4-4-.267-1.133-.4-2.467-.4-4 0-1.6.133-2.933.4-4-.267-1.133-.4-2.467-.4-4 0-1.6.133-2.933.4-4h6c.267 1.067.4 2.4.4 4 0 1.533-.133 2.867-.4 4 .267 1.067.4 2.4.4 4 0 1.533-.133 2.867-.4 4 .267 1.067.4 2.4.4 4 0 1.533-.133 2.867-.4 4 .267 1.067.4 2.4.4 4 0 1.533-.133 2.867-.4 4h2c.267 1.067.4 2.4.4 4 0 1.533-.133 2.867-.4 4h3c-.267-1.133-.4-2.467-.4-4 0-1.6.133-2.933.4-4-.267-1.133-.4-2.467-.4-4 0-1.6.133-2.933.4-4-.267-1.133-.4-2.467-.4-4 0-1.6.133-2.933.4-4-.267-1.133-.4-2.467-.4-4 0-1.6.133-2.933.4-4-.267-1.133-.4-2.467-.4-4 0-1.6.133-2.933.4-4h8c.267 1.067.4 2.4.4 4 0 1.533-.133 2.867-.4 4Z"/>
  </g>
  <defs>
    <clipPath id="a">
      <path fill="#fff" d="M0 0h553v56H0z"/>
    </clipPath>
  </defs>
</svg>
