<svg xmlns="http://www.w3.org/2000/svg" fill="none" viewBox="0 0 1438 594"><path fill="#000" d="M99.646 410.143q0 8.132-1.216 14.143H61.975q1.215 5.656 1.215 14.143 0 8.132-1.215 14.142 1.215 5.658 1.215 14.143 0 8.133-1.215 14.143Q63.19 486.515 63.19 495q0 8.132-1.215 14.143 1.215 5.657 1.215 14.143 0 8.131-1.215 14.143 1.215 5.656 1.215 14.142 0 8.133-1.215 14.143 1.215 5.658 1.215 14.143 0 8.133-1.215 14.143H37.67q-1.215-6.01-1.215-14.143 0-8.485 1.215-14.143-1.215-6.01-1.215-14.143 0-8.486 1.215-14.142-1.215-6.012-1.215-14.143 0-8.486 1.215-14.143-1.215-6.011-1.215-14.143 0-8.485 1.215-14.143-1.215-6.01-1.215-14.143 0-8.485 1.215-14.143-1.215-6.01-1.215-14.142 0-8.487 1.215-14.143H1.215Q0 418.275 0 410.143 0 401.657 1.215 396H98.43q1.216 5.657 1.216 14.143m102.197 155.571q1.215 5.658 1.215 14.143 0 8.133-1.215 14.143h-60.759q-1.22-6.01-1.216-14.143-.003-8.485 1.216-14.143h18.227q-1.218-6.01-1.215-14.143-.003-8.486 1.215-14.142-1.218-6.012-1.215-14.143-.003-8.486 1.215-14.143-1.218-6.011-1.215-14.143-.003-8.485 1.215-14.143-1.218-6.01-1.215-14.143-.003-8.485 1.215-14.143-1.218-6.01-1.215-14.142-.003-8.487 1.215-14.143h-18.227q-1.22-6.011-1.216-14.143-.003-8.486 1.216-14.143h60.759q1.215 5.657 1.215 14.143 0 8.132-1.215 14.143h-18.228q1.215 5.656 1.215 14.143 0 8.132-1.215 14.142 1.215 5.658 1.215 14.143 0 8.133-1.215 14.143 1.215 5.658 1.215 14.143 0 8.132-1.215 14.143 1.215 5.657 1.215 14.143 0 8.131-1.215 14.143 1.215 5.656 1.215 14.142 0 8.133-1.215 14.143zm139.862-28.285q1.216 5.656 1.216 14.142 0 8.133-1.216 14.143h-12.152q1.216 5.658 1.216 14.143 0 8.133-1.216 14.143h-60.759q-1.215-6.01-1.215-14.143 0-8.485 1.215-14.143h-12.152q-1.215-6.01-1.215-14.143 0-8.486 1.215-14.142H244.49q-1.215-6.012-1.215-14.143 0-8.486 1.215-14.143-1.215-6.011-1.215-14.143 0-8.485 1.215-14.143-1.215-6.01-1.215-14.143 0-8.485 1.215-14.143h12.152q-1.215-6.01-1.215-14.142 0-8.487 1.215-14.143h12.152q-1.215-6.011-1.215-14.143 0-8.486 1.215-14.143h60.759q1.216 5.657 1.216 14.143 0 8.132-1.216 14.143h12.152q1.216 5.656 1.216 14.143 0 8.132-1.216 14.142h-24.303q-1.216-6.01-1.216-14.142 0-8.487 1.216-14.143h-36.456q1.215 5.656 1.215 14.143 0 8.132-1.215 14.142h-12.152q1.215 5.658 1.215 14.143 0 8.133-1.215 14.143 1.215 5.658 1.215 14.143 0 8.132-1.215 14.143 1.215 5.657 1.215 14.143 0 8.131-1.215 14.143h12.152q1.215 5.656 1.215 14.142 0 8.133-1.215 14.143h36.456q-1.216-6.01-1.216-14.143 0-8.486 1.216-14.142zm121.638 28.285q1.215 5.658 1.215 14.143 0 8.133-1.215 14.143h-24.304q-1.215-6.01-1.215-14.143 0-8.485 1.215-14.143h-9.114q-1.215-6.01-1.215-14.143 0-8.486 1.215-14.142h-18.228q-1.215-6.012-1.215-14.143 0-8.486 1.215-14.143h-21.266q1.216 5.657 1.216 14.143 0 8.131-1.216 14.143 1.216 5.656 1.216 14.142 0 8.133-1.216 14.143 1.216 5.658 1.216 14.143 0 8.133-1.216 14.143h-24.303q-1.216-6.01-1.216-14.143 0-8.485 1.216-14.143-1.216-6.01-1.216-14.143 0-8.486 1.216-14.142-1.216-6.012-1.216-14.143 0-8.486 1.216-14.143-1.216-6.011-1.216-14.143 0-8.485 1.216-14.143-1.216-6.01-1.216-14.143 0-8.485 1.216-14.143-1.216-6.01-1.216-14.142 0-8.487 1.216-14.143-1.216-6.011-1.216-14.143 0-8.486 1.216-14.143h24.303q1.216 5.657 1.216 14.143 0 8.132-1.216 14.143 1.216 5.656 1.216 14.143 0 8.132-1.216 14.142 1.216 5.658 1.216 14.143 0 8.133-1.216 14.143h21.266q-1.215-6.01-1.215-14.143 0-8.485 1.215-14.143h18.228q-1.215-6.01-1.215-14.142 0-8.487 1.215-14.143h9.114q-1.215-6.011-1.215-14.143 0-8.486 1.215-14.143h24.304q1.215 5.657 1.215 14.143 0 8.132-1.215 14.143h-9.114q1.215 5.656 1.215 14.143 0 8.132-1.215 14.142h-18.228q1.215 5.658 1.215 14.143 0 8.133-1.215 14.143h-15.19q1.215 5.658 1.215 14.143 0 8.132-1.215 14.143h15.19q1.215 5.657 1.215 14.143 0 8.131-1.215 14.143h18.228q1.215 5.656 1.215 14.142 0 8.133-1.215 14.143zm60.878-56.571q1.215 5.657 1.215 14.143 0 8.131-1.215 14.143 1.215 5.656 1.215 14.142 0 8.133-1.215 14.143h48.607q1.216 5.658 1.216 14.143 0 8.133-1.216 14.143h-72.911q-1.215-6.01-1.215-14.143 0-8.485 1.215-14.143-1.215-6.01-1.215-14.143 0-8.486 1.215-14.142-1.215-6.012-1.215-14.143 0-8.486 1.215-14.143-1.215-6.011-1.215-14.143 0-8.485 1.215-14.143-1.215-6.01-1.215-14.143 0-8.485 1.215-14.143-1.215-6.01-1.215-14.142 0-8.487 1.215-14.143-1.215-6.011-1.215-14.143 0-8.486 1.215-14.143h72.911q1.216 5.657 1.216 14.143 0 8.132-1.216 14.143h-48.607q1.215 5.656 1.215 14.143 0 8.132-1.215 14.142 1.215 5.658 1.215 14.143 0 8.133-1.215 14.143h48.607q1.216 5.658 1.216 14.143 0 8.132-1.216 14.143zm183.612-99q0 8.132-1.215 14.143h-36.456q1.215 5.656 1.215 14.143 0 8.132-1.215 14.142 1.215 5.658 1.215 14.143 0 8.133-1.215 14.143 1.215 5.658 1.215 14.143 0 8.132-1.215 14.143 1.215 5.657 1.215 14.143 0 8.131-1.215 14.143 1.215 5.656 1.215 14.142 0 8.133-1.215 14.143 1.215 5.658 1.215 14.143 0 8.133-1.215 14.143h-24.304q-1.215-6.01-1.215-14.143 0-8.485 1.215-14.143-1.215-6.01-1.215-14.143 0-8.486 1.215-14.142-1.215-6.012-1.215-14.143 0-8.486 1.215-14.143-1.215-6.011-1.215-14.143 0-8.485 1.215-14.143-1.215-6.01-1.215-14.143 0-8.485 1.215-14.143-1.215-6.01-1.215-14.142 0-8.487 1.215-14.143h-36.455q-1.216-6.011-1.216-14.143 0-8.486 1.216-14.143h97.215q1.215 5.657 1.215 14.143m223.832 155.571q1.215 5.658 1.215 14.143 0 8.133-1.215 14.143h-60.76q-1.215-6.01-1.215-14.143 0-8.485 1.215-14.143h18.228q-1.215-6.01-1.215-14.143 0-8.486 1.215-14.142-1.215-6.012-1.215-14.143 0-8.486 1.215-14.143-1.215-6.011-1.215-14.143 0-8.485 1.215-14.143-1.215-6.01-1.215-14.143 0-8.485 1.215-14.143-1.215-6.01-1.215-14.142 0-8.487 1.215-14.143h-18.228q-1.215-6.011-1.215-14.143 0-8.486 1.215-14.143h60.76q1.215 5.657 1.215 14.143 0 8.132-1.215 14.143h-18.228q1.215 5.656 1.215 14.143 0 8.132-1.215 14.142 1.215 5.658 1.215 14.143 0 8.133-1.215 14.143 1.215 5.658 1.215 14.143 0 8.132-1.215 14.143 1.215 5.657 1.215 14.143 0 8.131-1.215 14.143 1.215 5.656 1.215 14.142 0 8.133-1.215 14.143zm139.865-141.428c.81 3.771 1.22 8.485 1.22 14.143 0 5.421-.41 10.135-1.22 14.142.81 3.772 1.22 8.486 1.22 14.143 0 5.422-.41 10.136-1.22 14.143.81 3.772 1.22 8.486 1.22 14.143 0 5.421-.41 10.136-1.22 14.143.81 3.771 1.22 8.486 1.22 14.143 0 5.421-.41 10.135-1.22 14.143.81 3.771 1.22 8.485 1.22 14.142 0 5.422-.41 10.136-1.22 14.143.81 3.772 1.22 8.486 1.22 14.143 0 5.422-.41 10.136-1.22 14.143h-24.3c-.81-4.007-1.22-8.721-1.22-14.143 0-5.657.41-10.371 1.22-14.143h-15.19c-.81-4.007-1.22-8.721-1.22-14.143 0-5.657.41-10.371 1.22-14.142h-9.11c-.81-4.008-1.22-8.722-1.22-14.143 0-5.657.41-10.372 1.22-14.143h-12.16c-.81-4.007-1.21-8.722-1.21-14.143 0-5.657.4-10.371 1.21-14.143h-12.148q1.215 5.658 1.215 14.143 0 8.132-1.215 14.143 1.215 5.657 1.215 14.143 0 8.131-1.215 14.143 1.215 5.656 1.215 14.142 0 8.133-1.215 14.143 1.215 5.658 1.215 14.143 0 8.133-1.215 14.143h-24.304q-1.215-6.01-1.215-14.143 0-8.485 1.215-14.143-1.215-6.01-1.215-14.143 0-8.486 1.215-14.142-1.215-6.012-1.215-14.143 0-8.486 1.215-14.143-1.215-6.011-1.215-14.143 0-8.485 1.215-14.143-1.215-6.01-1.215-14.143 0-8.485 1.215-14.143-1.215-6.01-1.215-14.142 0-8.487 1.215-14.143-1.215-6.011-1.215-14.143 0-8.486 1.215-14.143h30.382c.81 3.771 1.21 8.486 1.21 14.143 0 5.421-.4 10.136-1.21 14.143h9.11c.81 3.771 1.22 8.485 1.22 14.143 0 5.421-.41 10.135-1.22 14.142h9.12c.81 3.772 1.21 8.486 1.21 14.143 0 5.422-.4 10.136-1.21 14.143h12.15c.81 3.772 1.21 8.486 1.21 14.143 0 5.421-.4 10.136-1.21 14.143h12.15c-.81-4.007-1.22-8.722-1.22-14.143 0-5.657.41-10.371 1.22-14.143-.81-4.007-1.22-8.721-1.22-14.143 0-5.657.41-10.371 1.22-14.143-.81-4.007-1.22-8.721-1.22-14.142 0-5.658.41-10.372 1.22-14.143-.81-4.007-1.22-8.722-1.22-14.143 0-5.657.41-10.372 1.22-14.143h24.3c.81 3.771 1.22 8.486 1.22 14.143 0 5.421-.41 10.136-1.22 14.143m121.64 56.571c.81 3.772 1.22 8.486 1.22 14.143 0 5.421-.41 10.136-1.22 14.143.81 3.771 1.22 8.486 1.22 14.143 0 5.421-.41 10.135-1.22 14.143h-12.15c.81 3.771 1.21 8.485 1.21 14.142 0 5.422-.4 10.136-1.21 14.143h-12.15c.81 3.772 1.21 8.486 1.21 14.143 0 5.422-.4 10.136-1.21 14.143h-72.91c-.81-4.007-1.22-8.721-1.22-14.143 0-5.657.41-10.371 1.22-14.143-.81-4.007-1.22-8.721-1.22-14.143 0-5.657.41-10.371 1.22-14.142-.81-4.008-1.22-8.722-1.22-14.143 0-5.657.41-10.372 1.22-14.143-.81-4.007-1.22-8.722-1.22-14.143 0-5.657.41-10.371 1.22-14.143-.81-4.007-1.22-8.721-1.22-14.143 0-5.657.41-10.371 1.22-14.143-.81-4.007-1.22-8.721-1.22-14.142 0-5.658.41-10.372 1.22-14.143-.81-4.007-1.22-8.722-1.22-14.143 0-5.657.41-10.372 1.22-14.143h72.91c.81 3.771 1.21 8.486 1.21 14.143 0 5.421-.4 10.136-1.21 14.143h12.15c.81 3.771 1.21 8.485 1.21 14.143 0 5.421-.4 10.135-1.21 14.142h12.15c.81 3.772 1.22 8.486 1.22 14.143 0 5.422-.41 10.136-1.22 14.143m-24.3 56.572c-.81-4.008-1.22-8.722-1.22-14.143 0-5.657.41-10.372 1.22-14.143-.81-4.007-1.22-8.722-1.22-14.143 0-5.657.41-10.371 1.22-14.143-.81-4.007-1.22-8.721-1.22-14.143 0-5.657.41-10.371 1.22-14.143h-12.16c-.81-4.007-1.21-8.721-1.21-14.142 0-5.658.4-10.372 1.21-14.143h-36.45c.81 3.771 1.21 8.485 1.21 14.143 0 5.421-.4 10.135-1.21 14.142.81 3.772 1.21 8.486 1.21 14.143 0 5.422-.4 10.136-1.21 14.143.81 3.772 1.21 8.486 1.21 14.143 0 5.421-.4 10.136-1.21 14.143.81 3.771 1.21 8.486 1.21 14.143 0 5.421-.4 10.135-1.21 14.143.81 3.771 1.21 8.485 1.21 14.142 0 5.422-.4 10.136-1.21 14.143h36.45c-.81-4.007-1.21-8.721-1.21-14.143 0-5.657.4-10.371 1.21-14.142zm85.18-28.286c.81 3.771 1.21 8.486 1.21 14.143 0 5.421-.4 10.135-1.21 14.143.81 3.771 1.21 8.485 1.21 14.142 0 5.422-.4 10.136-1.21 14.143h48.61c.81 3.772 1.21 8.486 1.21 14.143 0 5.422-.4 10.136-1.21 14.143h-72.92c-.81-4.007-1.21-8.721-1.21-14.143 0-5.657.4-10.371 1.21-14.143-.81-4.007-1.21-8.721-1.21-14.143 0-5.657.4-10.371 1.21-14.142-.81-4.008-1.21-8.722-1.21-14.143 0-5.657.4-10.372 1.21-14.143-.81-4.007-1.21-8.722-1.21-14.143 0-5.657.4-10.371 1.21-14.143-.81-4.007-1.21-8.721-1.21-14.143 0-5.657.4-10.371 1.21-14.143-.81-4.007-1.21-8.721-1.21-14.142 0-5.658.4-10.372 1.21-14.143-.81-4.007-1.21-8.722-1.21-14.143 0-5.657.4-10.372 1.21-14.143h72.92c.81 3.771 1.21 8.486 1.21 14.143 0 5.421-.4 10.136-1.21 14.143h-48.61c.81 3.771 1.21 8.485 1.21 14.143 0 5.421-.4 10.135-1.21 14.142.81 3.772 1.21 8.486 1.21 14.143 0 5.422-.4 10.136-1.21 14.143h48.61c.81 3.772 1.21 8.486 1.21 14.143 0 5.421-.4 10.136-1.21 14.143zm182.4 56.571c.81 3.772 1.21 8.486 1.21 14.143 0 5.422-.4 10.136-1.21 14.143h-24.31c-.81-4.007-1.21-8.721-1.21-14.143 0-5.657.4-10.371 1.21-14.143h-9.11c-.81-4.007-1.22-8.721-1.22-14.143 0-5.657.41-10.371 1.22-14.142h-6.08c-.81-4.008-1.21-8.722-1.21-14.143 0-5.657.4-10.372 1.21-14.143h-18.23c.81 3.771 1.22 8.486 1.22 14.143 0 5.421-.41 10.135-1.22 14.143h-6.07c.81 3.771 1.21 8.485 1.21 14.142 0 5.422-.4 10.136-1.21 14.143h-9.12c.81 3.772 1.22 8.486 1.22 14.143 0 5.422-.41 10.136-1.22 14.143h-24.3c-.81-4.007-1.21-8.721-1.21-14.143 0-5.657.4-10.371 1.21-14.143h9.11c-.81-4.007-1.21-8.721-1.21-14.143 0-5.657.4-10.371 1.21-14.142h12.16c-.81-4.008-1.22-8.722-1.22-14.143 0-5.657.41-10.372 1.22-14.143h9.11c-.81-4.007-1.22-8.722-1.22-14.143 0-5.657.41-10.371 1.22-14.143h-9.11c-.81-4.007-1.22-8.721-1.22-14.143 0-5.657.41-10.371 1.22-14.143h-12.16c-.81-4.007-1.21-8.721-1.21-14.142 0-5.658.4-10.372 1.21-14.143h-9.11c-.81-4.007-1.21-8.722-1.21-14.143 0-5.657.4-10.372 1.21-14.143h24.3c.81 3.771 1.22 8.486 1.22 14.143 0 5.421-.41 10.136-1.22 14.143h9.12c.81 3.771 1.21 8.485 1.21 14.143 0 5.421-.4 10.135-1.21 14.142h6.07c.81 3.772 1.22 8.486 1.22 14.143 0 5.422-.41 10.136-1.22 14.143h18.23c-.81-4.007-1.21-8.721-1.21-14.143 0-5.657.4-10.371 1.21-14.143h6.08c-.81-4.007-1.22-8.721-1.22-14.142 0-5.658.41-10.372 1.22-14.143h9.11c-.81-4.007-1.21-8.722-1.21-14.143 0-5.657.4-10.372 1.21-14.143h24.31c.81 3.771 1.21 8.486 1.21 14.143 0 5.421-.4 10.136-1.21 14.143h-9.12c.81 3.771 1.22 8.485 1.22 14.143 0 5.421-.41 10.135-1.22 14.142h-12.15c.81 3.772 1.21 8.486 1.21 14.143 0 5.422-.4 10.136-1.21 14.143h-9.11c.81 3.772 1.21 8.486 1.21 14.143 0 5.421-.4 10.136-1.21 14.143h9.11c.81 3.771 1.21 8.486 1.21 14.143 0 5.421-.4 10.135-1.21 14.143h12.15c.81 3.771 1.22 8.485 1.22 14.142 0 5.422-.41 10.136-1.22 14.143z"/><path fill="#000" d="M99.646 212.143q0 8.132-1.216 14.143H61.975q1.215 5.656 1.215 14.143 0 8.131-1.215 14.142 1.215 5.658 1.215 14.143 0 8.133-1.215 14.143Q63.19 288.515 63.19 297q0 8.132-1.215 14.143 1.215 5.657 1.215 14.143 0 8.131-1.215 14.143 1.215 5.657 1.215 14.142 0 8.133-1.215 14.143 1.215 5.658 1.215 14.143 0 8.133-1.215 14.143H37.67q-1.215-6.01-1.215-14.143 0-8.485 1.215-14.143-1.215-6.01-1.215-14.143 0-8.486 1.215-14.142-1.215-6.012-1.215-14.143 0-8.486 1.215-14.143-1.215-6.011-1.215-14.143 0-8.485 1.215-14.143-1.215-6.01-1.215-14.143 0-8.485 1.215-14.143-1.215-6.01-1.215-14.142 0-8.487 1.215-14.143H1.215Q0 220.275 0 212.143 0 203.657 1.215 198H98.43q1.216 5.657 1.216 14.143m102.197 155.571q1.215 5.658 1.215 14.143 0 8.133-1.215 14.143h-60.759q-1.22-6.01-1.216-14.143-.003-8.485 1.216-14.143h18.227q-1.218-6.01-1.215-14.143-.003-8.486 1.215-14.142-1.218-6.012-1.215-14.143-.003-8.486 1.215-14.143-1.218-6.011-1.215-14.143-.003-8.485 1.215-14.143-1.218-6.01-1.215-14.143-.003-8.485 1.215-14.143-1.218-6.01-1.215-14.142-.003-8.487 1.215-14.143h-18.227q-1.22-6.011-1.216-14.143-.003-8.486 1.216-14.143h60.759q1.215 5.657 1.215 14.143 0 8.132-1.215 14.143h-18.228q1.215 5.656 1.215 14.143 0 8.131-1.215 14.142 1.215 5.658 1.215 14.143 0 8.133-1.215 14.143 1.215 5.658 1.215 14.143 0 8.132-1.215 14.143 1.215 5.657 1.215 14.143 0 8.131-1.215 14.143 1.215 5.657 1.215 14.142 0 8.133-1.215 14.143zm139.862-28.285q1.216 5.657 1.216 14.142 0 8.133-1.216 14.143h-12.152q1.216 5.658 1.216 14.143 0 8.133-1.216 14.143h-60.759q-1.215-6.01-1.215-14.143 0-8.485 1.215-14.143h-12.152q-1.215-6.01-1.215-14.143 0-8.486 1.215-14.142H244.49q-1.215-6.012-1.215-14.143 0-8.486 1.215-14.143-1.215-6.011-1.215-14.143 0-8.485 1.215-14.143-1.215-6.01-1.215-14.143 0-8.485 1.215-14.143h12.152q-1.215-6.01-1.215-14.142 0-8.487 1.215-14.143h12.152q-1.215-6.011-1.215-14.143 0-8.486 1.215-14.143h60.759q1.216 5.657 1.216 14.143 0 8.132-1.216 14.143h12.152q1.216 5.656 1.216 14.143 0 8.131-1.216 14.142h-24.303q-1.216-6.01-1.216-14.142 0-8.487 1.216-14.143h-36.456q1.215 5.656 1.215 14.143 0 8.131-1.215 14.142h-12.152q1.215 5.658 1.215 14.143 0 8.133-1.215 14.143 1.215 5.658 1.215 14.143 0 8.132-1.215 14.143 1.215 5.657 1.215 14.143 0 8.131-1.215 14.143h12.152q1.215 5.657 1.215 14.142 0 8.133-1.215 14.143h36.456q-1.216-6.01-1.216-14.143 0-8.486 1.216-14.142zm121.638 28.285q1.215 5.658 1.215 14.143 0 8.133-1.215 14.143h-24.304q-1.215-6.01-1.215-14.143 0-8.485 1.215-14.143h-9.114q-1.215-6.01-1.215-14.143 0-8.486 1.215-14.142h-18.228q-1.215-6.012-1.215-14.143 0-8.486 1.215-14.143h-21.266q1.216 5.657 1.216 14.143 0 8.131-1.216 14.143 1.216 5.657 1.216 14.142 0 8.133-1.216 14.143 1.216 5.658 1.216 14.143 0 8.133-1.216 14.143h-24.303q-1.216-6.01-1.216-14.143 0-8.485 1.216-14.143-1.216-6.01-1.216-14.143 0-8.486 1.216-14.142-1.216-6.012-1.216-14.143 0-8.486 1.216-14.143-1.216-6.011-1.216-14.143 0-8.485 1.216-14.143-1.216-6.01-1.216-14.143 0-8.485 1.216-14.143-1.216-6.01-1.216-14.142 0-8.487 1.216-14.143-1.216-6.011-1.216-14.143 0-8.486 1.216-14.143h24.303q1.216 5.657 1.216 14.143 0 8.132-1.216 14.143 1.216 5.656 1.216 14.143 0 8.131-1.216 14.142 1.216 5.658 1.216 14.143 0 8.133-1.216 14.143h21.266q-1.215-6.01-1.215-14.143 0-8.485 1.215-14.143h18.228q-1.215-6.01-1.215-14.142 0-8.487 1.215-14.143h9.114q-1.215-6.011-1.215-14.143 0-8.486 1.215-14.143h24.304q1.215 5.657 1.215 14.143 0 8.132-1.215 14.143h-9.114q1.215 5.656 1.215 14.143 0 8.131-1.215 14.142h-18.228q1.215 5.658 1.215 14.143 0 8.133-1.215 14.143h-15.19q1.215 5.658 1.215 14.143 0 8.132-1.215 14.143h15.19q1.215 5.657 1.215 14.143 0 8.131-1.215 14.143h18.228q1.215 5.657 1.215 14.142 0 8.133-1.215 14.143zm60.878-56.571q1.215 5.657 1.215 14.143 0 8.131-1.215 14.143 1.215 5.657 1.215 14.142 0 8.133-1.215 14.143h48.607q1.216 5.658 1.216 14.143 0 8.133-1.216 14.143h-72.911q-1.215-6.01-1.215-14.143 0-8.485 1.215-14.143-1.215-6.01-1.215-14.143 0-8.486 1.215-14.142-1.215-6.012-1.215-14.143 0-8.486 1.215-14.143-1.215-6.011-1.215-14.143 0-8.485 1.215-14.143-1.215-6.01-1.215-14.143 0-8.485 1.215-14.143-1.215-6.01-1.215-14.142 0-8.487 1.215-14.143-1.215-6.011-1.215-14.143 0-8.486 1.215-14.143h72.911q1.216 5.657 1.216 14.143 0 8.132-1.216 14.143h-48.607q1.215 5.656 1.215 14.143 0 8.131-1.215 14.142 1.215 5.658 1.215 14.143 0 8.133-1.215 14.143h48.607q1.216 5.658 1.216 14.143 0 8.132-1.216 14.143zm183.612-99q0 8.132-1.215 14.143h-36.456q1.215 5.656 1.215 14.143 0 8.131-1.215 14.142 1.215 5.658 1.215 14.143 0 8.133-1.215 14.143 1.215 5.658 1.215 14.143 0 8.132-1.215 14.143 1.215 5.657 1.215 14.143 0 8.131-1.215 14.143 1.215 5.657 1.215 14.142 0 8.133-1.215 14.143 1.215 5.658 1.215 14.143 0 8.133-1.215 14.143h-24.304q-1.215-6.01-1.215-14.143 0-8.485 1.215-14.143-1.215-6.01-1.215-14.143 0-8.486 1.215-14.142-1.215-6.012-1.215-14.143 0-8.486 1.215-14.143-1.215-6.011-1.215-14.143 0-8.485 1.215-14.143-1.215-6.01-1.215-14.143 0-8.485 1.215-14.143-1.215-6.01-1.215-14.142 0-8.487 1.215-14.143h-36.455q-1.216-6.011-1.216-14.143 0-8.486 1.216-14.143h97.215q1.215 5.657 1.215 14.143m223.832 155.571q1.215 5.658 1.215 14.143 0 8.133-1.215 14.143h-60.76q-1.215-6.01-1.215-14.143 0-8.485 1.215-14.143h18.228q-1.215-6.01-1.215-14.143 0-8.486 1.215-14.142-1.215-6.012-1.215-14.143 0-8.486 1.215-14.143-1.215-6.011-1.215-14.143 0-8.485 1.215-14.143-1.215-6.01-1.215-14.143 0-8.485 1.215-14.143-1.215-6.01-1.215-14.142 0-8.487 1.215-14.143h-18.228q-1.215-6.011-1.215-14.143 0-8.486 1.215-14.143h60.76q1.215 5.657 1.215 14.143 0 8.132-1.215 14.143h-18.228q1.215 5.656 1.215 14.143 0 8.131-1.215 14.142 1.215 5.658 1.215 14.143 0 8.133-1.215 14.143 1.215 5.658 1.215 14.143 0 8.132-1.215 14.143 1.215 5.657 1.215 14.143 0 8.131-1.215 14.143 1.215 5.657 1.215 14.142 0 8.133-1.215 14.143zm139.865-141.428c.81 3.771 1.22 8.485 1.22 14.143 0 5.421-.41 10.135-1.22 14.142.81 3.772 1.22 8.486 1.22 14.143 0 5.422-.41 10.136-1.22 14.143.81 3.772 1.22 8.486 1.22 14.143 0 5.421-.41 10.136-1.22 14.143.81 3.771 1.22 8.486 1.22 14.143 0 5.421-.41 10.135-1.22 14.143.81 3.771 1.22 8.485 1.22 14.142 0 5.422-.41 10.136-1.22 14.143.81 3.772 1.22 8.486 1.22 14.143 0 5.422-.41 10.136-1.22 14.143h-24.3c-.81-4.007-1.22-8.721-1.22-14.143 0-5.657.41-10.371 1.22-14.143h-15.19c-.81-4.007-1.22-8.721-1.22-14.143 0-5.657.41-10.371 1.22-14.142h-9.11c-.81-4.008-1.22-8.722-1.22-14.143 0-5.657.41-10.372 1.22-14.143h-12.16c-.81-4.007-1.21-8.722-1.21-14.143 0-5.657.4-10.371 1.21-14.143h-12.148q1.215 5.658 1.215 14.143 0 8.132-1.215 14.143 1.215 5.657 1.215 14.143 0 8.131-1.215 14.143 1.215 5.657 1.215 14.142 0 8.133-1.215 14.143 1.215 5.658 1.215 14.143 0 8.133-1.215 14.143h-24.304q-1.215-6.01-1.215-14.143 0-8.485 1.215-14.143-1.215-6.01-1.215-14.143 0-8.486 1.215-14.142-1.215-6.012-1.215-14.143 0-8.486 1.215-14.143-1.215-6.011-1.215-14.143 0-8.485 1.215-14.143-1.215-6.01-1.215-14.143 0-8.485 1.215-14.143-1.215-6.01-1.215-14.142 0-8.487 1.215-14.143-1.215-6.011-1.215-14.143 0-8.486 1.215-14.143h30.382c.81 3.771 1.21 8.486 1.21 14.143 0 5.421-.4 10.136-1.21 14.143h9.11c.81 3.771 1.22 8.485 1.22 14.143 0 5.421-.41 10.135-1.22 14.142h9.12c.81 3.772 1.21 8.486 1.21 14.143 0 5.422-.4 10.136-1.21 14.143h12.15c.81 3.772 1.21 8.486 1.21 14.143 0 5.421-.4 10.136-1.21 14.143h12.15c-.81-4.007-1.22-8.722-1.22-14.143 0-5.657.41-10.371 1.22-14.143-.81-4.007-1.22-8.721-1.22-14.143 0-5.657.41-10.371 1.22-14.143-.81-4.007-1.22-8.721-1.22-14.142 0-5.658.41-10.372 1.22-14.143-.81-4.007-1.22-8.722-1.22-14.143 0-5.657.41-10.372 1.22-14.143h24.3c.81 3.771 1.22 8.486 1.22 14.143 0 5.421-.41 10.136-1.22 14.143m121.64 56.571c.81 3.772 1.22 8.486 1.22 14.143 0 5.421-.41 10.136-1.22 14.143.81 3.771 1.22 8.486 1.22 14.143 0 5.421-.41 10.135-1.22 14.143h-12.15c.81 3.771 1.21 8.485 1.21 14.142 0 5.422-.4 10.136-1.21 14.143h-12.15c.81 3.772 1.21 8.486 1.21 14.143 0 5.422-.4 10.136-1.21 14.143h-72.91c-.81-4.007-1.22-8.721-1.22-14.143 0-5.657.41-10.371 1.22-14.143-.81-4.007-1.22-8.721-1.22-14.143 0-5.657.41-10.371 1.22-14.142-.81-4.008-1.22-8.722-1.22-14.143 0-5.657.41-10.372 1.22-14.143-.81-4.007-1.22-8.722-1.22-14.143 0-5.657.41-10.371 1.22-14.143-.81-4.007-1.22-8.721-1.22-14.143 0-5.657.41-10.371 1.22-14.143-.81-4.007-1.22-8.721-1.22-14.142 0-5.658.41-10.372 1.22-14.143-.81-4.007-1.22-8.722-1.22-14.143 0-5.657.41-10.372 1.22-14.143h72.91c.81 3.771 1.21 8.486 1.21 14.143 0 5.421-.4 10.136-1.21 14.143h12.15c.81 3.771 1.21 8.485 1.21 14.143 0 5.421-.4 10.135-1.21 14.142h12.15c.81 3.772 1.22 8.486 1.22 14.143 0 5.422-.41 10.136-1.22 14.143m-24.3 56.572c-.81-4.008-1.22-8.722-1.22-14.143 0-5.657.41-10.372 1.22-14.143-.81-4.007-1.22-8.722-1.22-14.143 0-5.657.41-10.371 1.22-14.143-.81-4.007-1.22-8.721-1.22-14.143 0-5.657.41-10.371 1.22-14.143h-12.16c-.81-4.007-1.21-8.721-1.21-14.142 0-5.658.4-10.372 1.21-14.143h-36.45c.81 3.771 1.21 8.485 1.21 14.143 0 5.421-.4 10.135-1.21 14.142.81 3.772 1.21 8.486 1.21 14.143 0 5.422-.4 10.136-1.21 14.143.81 3.772 1.21 8.486 1.21 14.143 0 5.421-.4 10.136-1.21 14.143.81 3.771 1.21 8.486 1.21 14.143 0 5.421-.4 10.135-1.21 14.143.81 3.771 1.21 8.485 1.21 14.142 0 5.422-.4 10.136-1.21 14.143h36.45c-.81-4.007-1.21-8.721-1.21-14.143 0-5.657.4-10.371 1.21-14.142zm85.18-28.286c.81 3.771 1.21 8.486 1.21 14.143 0 5.421-.4 10.135-1.21 14.143.81 3.771 1.21 8.485 1.21 14.142 0 5.422-.4 10.136-1.21 14.143h48.61c.81 3.772 1.21 8.486 1.21 14.143 0 5.422-.4 10.136-1.21 14.143h-72.92c-.81-4.007-1.21-8.721-1.21-14.143 0-5.657.4-10.371 1.21-14.143-.81-4.007-1.21-8.721-1.21-14.143 0-5.657.4-10.371 1.21-14.142-.81-4.008-1.21-8.722-1.21-14.143 0-5.657.4-10.372 1.21-14.143-.81-4.007-1.21-8.722-1.21-14.143 0-5.657.4-10.371 1.21-14.143-.81-4.007-1.21-8.721-1.21-14.143 0-5.657.4-10.371 1.21-14.143-.81-4.007-1.21-8.721-1.21-14.142 0-5.658.4-10.372 1.21-14.143-.81-4.007-1.21-8.722-1.21-14.143 0-5.657.4-10.372 1.21-14.143h72.92c.81 3.771 1.21 8.486 1.21 14.143 0 5.421-.4 10.136-1.21 14.143h-48.61c.81 3.771 1.21 8.485 1.21 14.143 0 5.421-.4 10.135-1.21 14.142.81 3.772 1.21 8.486 1.21 14.143 0 5.422-.4 10.136-1.21 14.143h48.61c.81 3.772 1.21 8.486 1.21 14.143 0 5.421-.4 10.136-1.21 14.143zm182.4 56.571c.81 3.772 1.21 8.486 1.21 14.143 0 5.422-.4 10.136-1.21 14.143h-24.31c-.81-4.007-1.21-8.721-1.21-14.143 0-5.657.4-10.371 1.21-14.143h-9.11c-.81-4.007-1.22-8.721-1.22-14.143 0-5.657.41-10.371 1.22-14.142h-6.08c-.81-4.008-1.21-8.722-1.21-14.143 0-5.657.4-10.372 1.21-14.143h-18.23c.81 3.771 1.22 8.486 1.22 14.143 0 5.421-.41 10.135-1.22 14.143h-6.07c.81 3.771 1.21 8.485 1.21 14.142 0 5.422-.4 10.136-1.21 14.143h-9.12c.81 3.772 1.22 8.486 1.22 14.143 0 5.422-.41 10.136-1.22 14.143h-24.3c-.81-4.007-1.21-8.721-1.21-14.143 0-5.657.4-10.371 1.21-14.143h9.11c-.81-4.007-1.21-8.721-1.21-14.143 0-5.657.4-10.371 1.21-14.142h12.16c-.81-4.008-1.22-8.722-1.22-14.143 0-5.657.41-10.372 1.22-14.143h9.11c-.81-4.007-1.22-8.722-1.22-14.143 0-5.657.41-10.371 1.22-14.143h-9.11c-.81-4.007-1.22-8.721-1.22-14.143 0-5.657.41-10.371 1.22-14.143h-12.16c-.81-4.007-1.21-8.721-1.21-14.142 0-5.658.4-10.372 1.21-14.143h-9.11c-.81-4.007-1.21-8.722-1.21-14.143 0-5.657.4-10.372 1.21-14.143h24.3c.81 3.771 1.22 8.486 1.22 14.143 0 5.421-.41 10.136-1.22 14.143h9.12c.81 3.771 1.21 8.485 1.21 14.143 0 5.421-.4 10.135-1.21 14.142h6.07c.81 3.772 1.22 8.486 1.22 14.143 0 5.422-.41 10.136-1.22 14.143h18.23c-.81-4.007-1.21-8.721-1.21-14.143 0-5.657.4-10.371 1.21-14.143h6.08c-.81-4.007-1.22-8.721-1.22-14.142 0-5.658.41-10.372 1.22-14.143h9.11c-.81-4.007-1.21-8.722-1.21-14.143 0-5.657.4-10.372 1.21-14.143h24.31c.81 3.771 1.21 8.486 1.21 14.143 0 5.421-.4 10.136-1.21 14.143h-9.12c.81 3.771 1.22 8.485 1.22 14.143 0 5.421-.41 10.135-1.22 14.142h-12.15c.81 3.772 1.21 8.486 1.21 14.143 0 5.422-.4 10.136-1.21 14.143h-9.11c.81 3.772 1.21 8.486 1.21 14.143 0 5.421-.4 10.136-1.21 14.143h9.11c.81 3.771 1.21 8.486 1.21 14.143 0 5.421-.4 10.135-1.21 14.143h12.15c.81 3.771 1.22 8.485 1.22 14.142 0 5.422-.41 10.136-1.22 14.143z"/><path fill="#000" d="M99.646 14.143q0 8.132-1.216 14.143H61.975q1.215 5.656 1.215 14.143 0 8.131-1.215 14.142 1.215 5.658 1.215 14.143 0 8.133-1.215 14.143Q63.19 90.515 63.19 99q0 8.132-1.215 14.143 1.215 5.657 1.215 14.143 0 8.131-1.215 14.143 1.215 5.656 1.215 14.142 0 8.133-1.215 14.143 1.215 5.658 1.215 14.143 0 8.133-1.215 14.143H37.67q-1.215-6.01-1.215-14.143 0-8.485 1.215-14.143-1.215-6.01-1.215-14.143 0-8.486 1.215-14.142-1.215-6.012-1.215-14.143 0-8.486 1.215-14.143-1.215-6.011-1.215-14.143 0-8.485 1.215-14.143-1.215-6.01-1.215-14.143 0-8.485 1.215-14.143-1.215-6.01-1.215-14.142 0-8.487 1.215-14.143H1.215Q0 22.275 0 14.143 0 5.657 1.215 0H98.43q1.216 5.657 1.216 14.143m102.197 155.571q1.215 5.658 1.215 14.143 0 8.133-1.215 14.143h-60.759q-1.22-6.01-1.216-14.143-.003-8.485 1.216-14.143h18.227q-1.218-6.01-1.215-14.143-.003-8.486 1.215-14.142-1.218-6.012-1.215-14.143-.003-8.486 1.215-14.143-1.218-6.011-1.215-14.143-.003-8.485 1.215-14.143-1.218-6.01-1.215-14.143-.003-8.485 1.215-14.143-1.218-6.01-1.215-14.142-.003-8.487 1.215-14.143h-18.227q-1.22-6.011-1.216-14.143-.003-8.486 1.216-14.143h60.759q1.215 5.657 1.215 14.143 0 8.132-1.215 14.143h-18.228q1.215 5.656 1.215 14.143 0 8.131-1.215 14.142 1.215 5.658 1.215 14.143 0 8.133-1.215 14.143Q184.83 90.515 184.83 99q0 8.132-1.215 14.143 1.215 5.657 1.215 14.143 0 8.131-1.215 14.143 1.215 5.656 1.215 14.142 0 8.133-1.215 14.143zm139.862-28.285q1.216 5.656 1.216 14.142 0 8.133-1.216 14.143h-12.152q1.216 5.658 1.216 14.143 0 8.133-1.216 14.143h-60.759q-1.215-6.01-1.215-14.143 0-8.485 1.215-14.143h-12.152q-1.215-6.01-1.215-14.143 0-8.486 1.215-14.142H244.49q-1.215-6.012-1.215-14.143 0-8.486 1.215-14.143-1.215-6.011-1.215-14.143 0-8.485 1.215-14.143-1.215-6.01-1.215-14.143 0-8.485 1.215-14.143h12.152q-1.215-6.01-1.215-14.142 0-8.487 1.215-14.143h12.152q-1.215-6.011-1.215-14.143 0-8.486 1.215-14.143h60.759q1.216 5.657 1.216 14.143 0 8.132-1.216 14.143h12.152q1.216 5.656 1.216 14.143 0 8.131-1.216 14.142h-24.303q-1.216-6.01-1.216-14.142 0-8.487 1.216-14.143h-36.456q1.215 5.656 1.215 14.143 0 8.131-1.215 14.142h-12.152q1.215 5.658 1.215 14.143 0 8.133-1.215 14.143 1.215 5.658 1.215 14.143 0 8.132-1.215 14.143 1.215 5.657 1.215 14.143 0 8.131-1.215 14.143h12.152q1.215 5.656 1.215 14.142 0 8.133-1.215 14.143h36.456q-1.216-6.01-1.216-14.143 0-8.486 1.216-14.142zm121.638 28.285q1.215 5.658 1.215 14.143 0 8.133-1.215 14.143h-24.304q-1.215-6.01-1.215-14.143 0-8.485 1.215-14.143h-9.114q-1.215-6.01-1.215-14.143 0-8.486 1.215-14.142h-18.228q-1.215-6.012-1.215-14.143 0-8.486 1.215-14.143h-21.266q1.216 5.657 1.216 14.143 0 8.131-1.216 14.143 1.216 5.656 1.216 14.142 0 8.133-1.216 14.143 1.216 5.658 1.216 14.143 0 8.133-1.216 14.143h-24.303q-1.216-6.01-1.216-14.143 0-8.485 1.216-14.143-1.216-6.01-1.216-14.143 0-8.486 1.216-14.142-1.216-6.012-1.216-14.143 0-8.486 1.216-14.143-1.216-6.011-1.216-14.143 0-8.485 1.216-14.143-1.216-6.01-1.216-14.143 0-8.485 1.216-14.143-1.216-6.01-1.216-14.142 0-8.487 1.216-14.143-1.216-6.011-1.216-14.143 0-8.486 1.216-14.143h24.303q1.216 5.657 1.216 14.143 0 8.132-1.216 14.143 1.216 5.656 1.216 14.143 0 8.131-1.216 14.142 1.216 5.658 1.216 14.143 0 8.133-1.216 14.143h21.266q-1.215-6.01-1.215-14.143 0-8.485 1.215-14.143h18.228q-1.215-6.01-1.215-14.142 0-8.487 1.215-14.143h9.114q-1.215-6.011-1.215-14.143 0-8.486 1.215-14.143h24.304q1.215 5.657 1.215 14.143 0 8.132-1.215 14.143h-9.114q1.215 5.656 1.215 14.143 0 8.131-1.215 14.142h-18.228q1.215 5.658 1.215 14.143 0 8.133-1.215 14.143h-15.19q1.215 5.658 1.215 14.143 0 8.132-1.215 14.143h15.19q1.215 5.657 1.215 14.143 0 8.131-1.215 14.143h18.228q1.215 5.656 1.215 14.142 0 8.133-1.215 14.143zm60.878-56.571q1.215 5.657 1.215 14.143 0 8.131-1.215 14.143 1.215 5.656 1.215 14.142 0 8.133-1.215 14.143h48.607q1.216 5.658 1.216 14.143 0 8.133-1.216 14.143h-72.911q-1.215-6.01-1.215-14.143 0-8.485 1.215-14.143-1.215-6.01-1.215-14.143 0-8.486 1.215-14.142-1.215-6.012-1.215-14.143 0-8.486 1.215-14.143-1.215-6.011-1.215-14.143 0-8.485 1.215-14.143-1.215-6.01-1.215-14.143 0-8.485 1.215-14.143-1.215-6.01-1.215-14.142 0-8.487 1.215-14.143-1.215-6.011-1.215-14.143 0-8.486 1.215-14.143h72.911q1.216 5.657 1.216 14.143 0 8.132-1.216 14.143h-48.607q1.215 5.656 1.215 14.143 0 8.131-1.215 14.142 1.215 5.658 1.215 14.143 0 8.133-1.215 14.143h48.607q1.216 5.658 1.216 14.143 0 8.132-1.216 14.143zm183.612-99q0 8.132-1.215 14.143h-36.456q1.215 5.656 1.215 14.143 0 8.131-1.215 14.142 1.215 5.658 1.215 14.143 0 8.133-1.215 14.143 1.215 5.658 1.215 14.143 0 8.132-1.215 14.143 1.215 5.657 1.215 14.143 0 8.131-1.215 14.143 1.215 5.656 1.215 14.142 0 8.133-1.215 14.143 1.215 5.658 1.215 14.143 0 8.133-1.215 14.143h-24.304q-1.215-6.01-1.215-14.143 0-8.485 1.215-14.143-1.215-6.01-1.215-14.143 0-8.486 1.215-14.142-1.215-6.012-1.215-14.143 0-8.486 1.215-14.143-1.215-6.011-1.215-14.143 0-8.485 1.215-14.143-1.215-6.01-1.215-14.143 0-8.485 1.215-14.143-1.215-6.01-1.215-14.142 0-8.487 1.215-14.143h-36.455q-1.216-6.011-1.216-14.143 0-8.486 1.216-14.143h97.215q1.215 5.657 1.215 14.143m223.832 155.571q1.215 5.658 1.215 14.143 0 8.133-1.215 14.143h-60.76q-1.215-6.01-1.215-14.143 0-8.485 1.215-14.143h18.228q-1.215-6.01-1.215-14.143 0-8.486 1.215-14.142-1.215-6.012-1.215-14.143 0-8.486 1.215-14.143-1.215-6.011-1.215-14.143 0-8.485 1.215-14.143-1.215-6.01-1.215-14.143 0-8.485 1.215-14.143-1.215-6.01-1.215-14.142 0-8.487 1.215-14.143h-18.228q-1.215-6.011-1.215-14.143 0-8.486 1.215-14.143h60.76q1.215 5.657 1.215 14.143 0 8.132-1.215 14.143h-18.228q1.215 5.656 1.215 14.143 0 8.131-1.215 14.142 1.215 5.658 1.215 14.143 0 8.133-1.215 14.143 1.215 5.658 1.215 14.143 0 8.132-1.215 14.143 1.215 5.657 1.215 14.143 0 8.131-1.215 14.143 1.215 5.656 1.215 14.142 0 8.133-1.215 14.143zM1071.53 28.286c.81 3.771 1.22 8.485 1.22 14.143 0 5.421-.41 10.135-1.22 14.142.81 3.772 1.22 8.486 1.22 14.143 0 5.422-.41 10.136-1.22 14.143.81 3.772 1.22 8.486 1.22 14.143 0 5.421-.41 10.136-1.22 14.143.81 3.771 1.22 8.486 1.22 14.143 0 5.421-.41 10.135-1.22 14.143.81 3.771 1.22 8.485 1.22 14.142 0 5.422-.41 10.136-1.22 14.143.81 3.772 1.22 8.486 1.22 14.143 0 5.422-.41 10.136-1.22 14.143h-24.3c-.81-4.007-1.22-8.721-1.22-14.143 0-5.657.41-10.371 1.22-14.143h-15.19c-.81-4.007-1.22-8.721-1.22-14.143 0-5.657.41-10.371 1.22-14.142h-9.11c-.81-4.008-1.22-8.722-1.22-14.143 0-5.657.41-10.372 1.22-14.143h-12.16c-.81-4.007-1.21-8.722-1.21-14.143 0-5.657.4-10.371 1.21-14.143h-12.148q1.215 5.658 1.215 14.143 0 8.132-1.215 14.143 1.215 5.657 1.215 14.143 0 8.131-1.215 14.143 1.215 5.656 1.215 14.142 0 8.133-1.215 14.143 1.215 5.658 1.215 14.143 0 8.133-1.215 14.143h-24.304q-1.215-6.01-1.215-14.143 0-8.485 1.215-14.143-1.215-6.01-1.215-14.143 0-8.486 1.215-14.142-1.215-6.012-1.215-14.143 0-8.486 1.215-14.143-1.215-6.011-1.215-14.143 0-8.485 1.215-14.143-1.215-6.01-1.215-14.143 0-8.485 1.215-14.143-1.215-6.01-1.215-14.142 0-8.487 1.215-14.143-1.215-6.011-1.215-14.143 0-8.486 1.215-14.143h30.382c.81 3.771 1.21 8.486 1.21 14.143 0 5.421-.4 10.136-1.21 14.143h9.11c.81 3.771 1.22 8.485 1.22 14.143 0 5.421-.41 10.135-1.22 14.142h9.12c.81 3.772 1.21 8.486 1.21 14.143 0 5.422-.4 10.136-1.21 14.143h12.15c.81 3.772 1.21 8.486 1.21 14.143 0 5.421-.4 10.136-1.21 14.143h12.15c-.81-4.007-1.22-8.722-1.22-14.143 0-5.657.41-10.371 1.22-14.143-.81-4.007-1.22-8.721-1.22-14.143 0-5.657.41-10.371 1.22-14.143-.81-4.007-1.22-8.721-1.22-14.142 0-5.658.41-10.372 1.22-14.143-.81-4.007-1.22-8.722-1.22-14.143 0-5.657.41-10.372 1.22-14.143h24.3c.81 3.771 1.22 8.486 1.22 14.143 0 5.421-.41 10.136-1.22 14.143m121.64 56.571c.81 3.772 1.22 8.486 1.22 14.143 0 5.421-.41 10.136-1.22 14.143.81 3.771 1.22 8.486 1.22 14.143 0 5.421-.41 10.135-1.22 14.143h-12.15c.81 3.771 1.21 8.485 1.21 14.142 0 5.422-.4 10.136-1.21 14.143h-12.15c.81 3.772 1.21 8.486 1.21 14.143 0 5.422-.4 10.136-1.21 14.143h-72.91c-.81-4.007-1.22-8.721-1.22-14.143 0-5.657.41-10.371 1.22-14.143-.81-4.007-1.22-8.721-1.22-14.143 0-5.657.41-10.371 1.22-14.142-.81-4.008-1.22-8.722-1.22-14.143 0-5.657.41-10.372 1.22-14.143-.81-4.007-1.22-8.722-1.22-14.143 0-5.657.41-10.371 1.22-14.143-.81-4.007-1.22-8.721-1.22-14.143 0-5.657.41-10.371 1.22-14.143-.81-4.007-1.22-8.721-1.22-14.142 0-5.658.41-10.372 1.22-14.143-.81-4.007-1.22-8.722-1.22-14.143 0-5.657.41-10.372 1.22-14.143h72.91c.81 3.771 1.21 8.486 1.21 14.143 0 5.421-.4 10.136-1.21 14.143h12.15c.81 3.771 1.21 8.485 1.21 14.143 0 5.421-.4 10.135-1.21 14.142h12.15c.81 3.772 1.22 8.486 1.22 14.143 0 5.422-.41 10.136-1.22 14.143m-24.3 56.572c-.81-4.008-1.22-8.722-1.22-14.143 0-5.657.41-10.372 1.22-14.143-.81-4.007-1.22-8.722-1.22-14.143 0-5.657.41-10.371 1.22-14.143-.81-4.007-1.22-8.721-1.22-14.143 0-5.657.41-10.371 1.22-14.143h-12.16c-.81-4.007-1.21-8.721-1.21-14.142 0-5.658.4-10.372 1.21-14.143h-36.45c.81 3.771 1.21 8.485 1.21 14.143 0 5.421-.4 10.135-1.21 14.142.81 3.772 1.21 8.486 1.21 14.143 0 5.422-.4 10.136-1.21 14.143.81 3.772 1.21 8.486 1.21 14.143 0 5.421-.4 10.136-1.21 14.143.81 3.771 1.21 8.486 1.21 14.143 0 5.421-.4 10.135-1.21 14.143.81 3.771 1.21 8.485 1.21 14.142 0 5.422-.4 10.136-1.21 14.143h36.45c-.81-4.007-1.21-8.721-1.21-14.143 0-5.657.4-10.371 1.21-14.142zm85.18-28.286c.81 3.771 1.21 8.486 1.21 14.143 0 5.421-.4 10.135-1.21 14.143.81 3.771 1.21 8.485 1.21 14.142 0 5.422-.4 10.136-1.21 14.143h48.61c.81 3.772 1.21 8.486 1.21 14.143 0 5.422-.4 10.136-1.21 14.143h-72.92c-.81-4.007-1.21-8.721-1.21-14.143 0-5.657.4-10.371 1.21-14.143-.81-4.007-1.21-8.721-1.21-14.143 0-5.657.4-10.371 1.21-14.142-.81-4.008-1.21-8.722-1.21-14.143 0-5.657.4-10.372 1.21-14.143-.81-4.007-1.21-8.722-1.21-14.143 0-5.657.4-10.371 1.21-14.143-.81-4.007-1.21-8.721-1.21-14.143 0-5.657.4-10.371 1.21-14.143-.81-4.007-1.21-8.721-1.21-14.142 0-5.658.4-10.372 1.21-14.143-.81-4.007-1.21-8.722-1.21-14.143 0-5.657.4-10.372 1.21-14.143h72.92c.81 3.771 1.21 8.486 1.21 14.143 0 5.421-.4 10.136-1.21 14.143h-48.61c.81 3.771 1.21 8.485 1.21 14.143 0 5.421-.4 10.135-1.21 14.142.81 3.772 1.21 8.486 1.21 14.143 0 5.422-.4 10.136-1.21 14.143h48.61c.81 3.772 1.21 8.486 1.21 14.143 0 5.421-.4 10.136-1.21 14.143zm182.4 56.571c.81 3.772 1.21 8.486 1.21 14.143 0 5.422-.4 10.136-1.21 14.143h-24.31c-.81-4.007-1.21-8.721-1.21-14.143 0-5.657.4-10.371 1.21-14.143h-9.11c-.81-4.007-1.22-8.721-1.22-14.143 0-5.657.41-10.371 1.22-14.142h-6.08c-.81-4.008-1.21-8.722-1.21-14.143 0-5.657.4-10.372 1.21-14.143h-18.23c.81 3.771 1.22 8.486 1.22 14.143 0 5.421-.41 10.135-1.22 14.143h-6.07c.81 3.771 1.21 8.485 1.21 14.142 0 5.422-.4 10.136-1.21 14.143h-9.12c.81 3.772 1.22 8.486 1.22 14.143 0 5.422-.41 10.136-1.22 14.143h-24.3c-.81-4.007-1.21-8.721-1.21-14.143 0-5.657.4-10.371 1.21-14.143h9.11c-.81-4.007-1.21-8.721-1.21-14.143 0-5.657.4-10.371 1.21-14.142h12.16c-.81-4.008-1.22-8.722-1.22-14.143 0-5.657.41-10.372 1.22-14.143h9.11c-.81-4.007-1.22-8.722-1.22-14.143 0-5.657.41-10.371 1.22-14.143h-9.11c-.81-4.007-1.22-8.721-1.22-14.143 0-5.657.41-10.371 1.22-14.143h-12.16c-.81-4.007-1.21-8.721-1.21-14.142 0-5.658.4-10.372 1.21-14.143h-9.11c-.81-4.007-1.21-8.722-1.21-14.143 0-5.657.4-10.372 1.21-14.143h24.3c.81 3.771 1.22 8.486 1.22 14.143 0 5.421-.41 10.136-1.22 14.143h9.12c.81 3.771 1.21 8.485 1.21 14.143 0 5.421-.4 10.135-1.21 14.142h6.07c.81 3.772 1.22 8.486 1.22 14.143 0 5.422-.41 10.136-1.22 14.143h18.23c-.81-4.007-1.21-8.721-1.21-14.143 0-5.657.4-10.371 1.21-14.143h6.08c-.81-4.007-1.22-8.721-1.22-14.142 0-5.658.41-10.372 1.22-14.143h9.11c-.81-4.007-1.21-8.722-1.21-14.143 0-5.657.4-10.372 1.21-14.143h24.31c.81 3.771 1.21 8.486 1.21 14.143 0 5.421-.4 10.136-1.21 14.143h-9.12c.81 3.771 1.22 8.485 1.22 14.143 0 5.421-.41 10.135-1.22 14.142h-12.15c.81 3.772 1.21 8.486 1.21 14.143 0 5.422-.4 10.136-1.21 14.143h-9.11c.81 3.772 1.21 8.486 1.21 14.143 0 5.421-.4 10.136-1.21 14.143h9.11c.81 3.771 1.21 8.486 1.21 14.143 0 5.421-.4 10.135-1.21 14.143h12.15c.81 3.771 1.22 8.485 1.22 14.142 0 5.422-.41 10.136-1.22 14.143z"/></svg>